<?xml version="1.0" encoding="UTF-8" standalone="no"?>
<svg
   id="svg"
   version="1.1"
   width="400"
   height="114.61483081353491"
   viewBox="0, 0, 400,114.61483081353491"
   sodipodi:docname="rustdesk-banner.svg"
   inkscape:version="1.3.2 (091e20e, 2023-11-25, custom)"
   xmlns:inkscape="http://www.inkscape.org/namespaces/inkscape"
   xmlns:sodipodi="http://sodipodi.sourceforge.net/DTD/sodipodi-0.dtd"
   xmlns="http://www.w3.org/2000/svg"
   xmlns:svg="http://www.w3.org/2000/svg">
  <defs
     id="defs1" />
  <sodipodi:namedview
     id="namedview1"
     pagecolor="#ffffff"
     bordercolor="#000000"
     borderopacity="0.25"
     inkscape:showpageshadow="2"
     inkscape:pageopacity="0.0"
     inkscape:pagecheckerboard="0"
     inkscape:deskcolor="#d1d1d1"
     inkscape:zoom="3.385"
     inkscape:cx="200"
     inkscape:cy="57.163959"
     inkscape:window-width="1920"
     inkscape:window-height="991"
     inkscape:window-x="-9"
     inkscape:window-y="-9"
     inkscape:window-maximized="1"
     inkscape:current-layer="svg" />
  <g
     id="svgg"
     transform="translate(0.59084195,-0.88626292)">
    <path
       id="path0"
       d="M 0,57.25 V 114.5 H 200 400 V 57.25 0 H 200 0 V 57.25 M 202.355,10.216 c 0.584,0.303 3.574,1.904 6.645,3.559 6.263,3.376 13.2,7.056 15.833,8.4 0.963,0.491 1.882,1.001 2.042,1.135 0.379,0.314 0.46,29.085 0.083,29.55 -0.114,0.142 -0.958,0.654 -1.875,1.138 -0.916,0.484 -3.729,2.023 -6.25,3.419 -2.52,1.396 -6.796,3.759 -9.5,5.25 -2.704,1.492 -5.629,3.128 -6.5,3.637 -2.703,1.578 -1.748,1.925 -16.083,-5.841 -3.3,-1.787 -7.65,-4.136 -9.667,-5.218 -2.016,-1.083 -3.798,-2.08 -3.958,-2.216 -0.548,-0.465 -0.345,-28.895 0.21,-29.423 0.137,-0.13 2.048,-1.191 4.248,-2.359 5.311,-2.818 9.534,-5.095 15.084,-8.134 6.997,-3.832 7.558,-4 9.688,-2.897 m -45.879,67.688 c 0.688,0.356 0.857,0.919 0.857,2.854 V 82.5 h 1.917 1.917 v -1.758 c 0,-2.485 0.555,-3.29 2.073,-3.005 1.245,0.234 1.26,0.308 1.26,6.283 v 5.308 l -0.483,0.541 c -0.652,0.729 -1.627,0.764 -2.309,0.082 -0.438,-0.438 -0.462,-0.546 -0.541,-2.496 l -0.084,-2.038 h -1.833 -1.833 l -0.084,2.038 c -0.079,1.95 -0.103,2.058 -0.541,2.496 -0.682,0.682 -1.657,0.647 -2.309,-0.082 L 154,89.328 l 0.004,-5.289 c 0.003,-4.76 0.032,-5.324 0.291,-5.642 0.601,-0.737 1.372,-0.911 2.181,-0.493 m 52.666,0 c 0.66,0.341 0.858,0.923 0.858,2.521 0,1.57 -0.013,1.551 0.677,1.041 1.233,-0.911 3.649,-0.469 4.546,0.832 1.151,1.67 1.118,7.407 -0.047,8.03 -1.578,0.845 -2.294,-0.094 -2.371,-3.11 C 212.736,84.579 212.499,84 211.485,84 210.249,84 210,84.531 210,87.167 c 0,2.7 -0.327,3.333 -1.724,3.333 -0.443,0 -0.682,-0.121 -1.011,-0.513 l -0.432,-0.513 v -5.416 -5.417 l 0.488,-0.487 c 0.541,-0.542 1.107,-0.619 1.821,-0.25 m 13.647,0.017 c 0.2,0.14 0.932,1.075 1.626,2.077 0.695,1.003 1.318,1.857 1.385,1.898 0.067,0.041 0.759,-0.836 1.539,-1.949 1.721,-2.456 2.476,-2.835 3.49,-1.747 0.697,0.748 0.49,1.31 -1.583,4.3 l -1.907,2.75 -0.003,2.216 c -0.003,2.601 -0.214,3.034 -1.48,3.034 -1.235,0 -1.523,-0.596 -1.523,-3.149 v -2.124 l -1.916,-2.814 c -2.129,-3.126 -2.238,-3.451 -1.43,-4.259 0.549,-0.549 1.226,-0.636 1.802,-0.233 m -51.106,3.269 c 1.948,0.652 2.309,1.495 2.313,5.412 l 0.004,3.019 -0.439,0.44 c -0.555,0.555 -1.484,0.595 -2.124,0.092 l -0.441,-0.347 -0.717,0.347 c -2.879,1.393 -5.88,-1.162 -4.622,-3.934 0.628,-1.381 2.693,-2.098 4.56,-1.583 0.554,0.153 0.616,0.138 0.616,-0.146 0,-0.654 -0.709,-0.88 -2.444,-0.776 -2.238,0.133 -3.285,-1.037 -1.869,-2.089 0.803,-0.597 3.901,-0.858 5.163,-0.435 m 6.038,0.243 0.432,0.432 0.548,-0.389 c 1.129,-0.805 3.317,-0.606 4.418,0.4 l 0.368,0.337 0.586,-0.515 c 1.604,-1.408 4.606,-0.797 5.487,1.117 0.777,1.689 0.579,6.835 -0.287,7.442 -1.495,1.047 -2.438,-0.01 -2.444,-2.738 -0.006,-3.188 -0.253,-3.852 -1.432,-3.852 -1.022,0 -1.23,0.525 -1.23,3.111 0,3.044 -0.312,3.728 -1.698,3.718 -1.301,-0.008 -1.626,-0.806 -1.632,-4.006 -0.004,-2.396 -0.191,-2.823 -1.231,-2.823 -1.138,0 -1.344,0.494 -1.439,3.444 -0.084,2.583 -0.084,2.586 -0.551,2.987 -0.619,0.532 -1.447,0.531 -2.065,0 l -0.468,-0.402 v -3.918 c 0,-3.917 0,-3.918 0.404,-4.348 0.569,-0.605 1.627,-0.604 2.234,0.003 m 15.92,-0.012 0.5,0.42 0.682,-0.355 c 1.232,-0.642 2.344,-0.104 2.344,1.134 0,0.702 -0.456,1.155 -1.4,1.393 -1.334,0.336 -1.504,0.678 -1.6,3.208 -0.106,2.795 -0.361,3.279 -1.725,3.279 -0.442,0 -0.681,-0.121 -1.011,-0.513 L 191,89.474 v -3.796 -3.796 l 0.409,-0.441 c 0.557,-0.601 1.532,-0.61 2.232,-0.02 m 10.608,0.162 c 1.372,0.854 1.501,1.28 1.501,4.973 v 3.14 l -0.468,0.402 c -0.608,0.523 -1.567,0.544 -2.103,0.045 l -0.383,-0.358 -0.736,0.358 c -2.832,1.376 -5.821,-1.1 -4.666,-3.864 0.613,-1.467 3.262,-2.284 4.981,-1.537 0.475,0.207 0.354,-0.335 -0.167,-0.749 -0.418,-0.334 -0.591,-0.357 -1.995,-0.276 -2.147,0.124 -3.253,-0.963 -2.045,-2.01 1.026,-0.89 4.728,-0.965 6.081,-0.124 m 32.699,-0.177 c 1.606,0.748 1.792,1.24 1.856,4.928 l 0.055,3.11 -0.445,0.528 c -0.551,0.656 -1.45,0.726 -2.158,0.17 l -0.456,-0.359 -0.738,0.359 c -2.775,1.348 -5.753,-1.023 -4.718,-3.756 0.567,-1.496 3.009,-2.377 4.752,-1.715 0.532,0.203 0.638,0.137 0.497,-0.307 -0.175,-0.553 -0.964,-0.756 -2.508,-0.647 -2.048,0.145 -3.045,-0.921 -1.877,-2.008 0.881,-0.819 4.25,-0.997 5.74,-0.303 m 5.527,0.07 c 0.435,0.476 0.437,0.476 0.861,0.162 0.744,-0.55 1.521,-0.571 2.132,-0.056 0.972,0.818 0.533,2.044 -0.858,2.394 -1.499,0.377 -1.766,0.962 -1.773,3.876 -0.004,2.083 -0.322,2.648 -1.489,2.648 -1.531,0 -1.713,-0.559 -1.649,-5.072 l 0.051,-3.624 0.468,-0.402 c 0.685,-0.589 1.679,-0.557 2.257,0.074 m -73.304,5.21 c -0.724,0.289 -0.832,0.653 -0.338,1.147 0.756,0.756 2.571,0.06 2.036,-0.781 -0.28,-0.44 -1.08,-0.613 -1.698,-0.366 m 31.912,-0.061 c -0.807,0.188 -1.002,0.846 -0.379,1.282 0.704,0.494 1.963,0.175 1.963,-0.497 0,-0.584 -0.782,-0.972 -1.584,-0.785 m 32.949,-0.002 c -0.211,0.038 -0.471,0.26 -0.577,0.493 -0.346,0.759 0.71,1.296 1.761,0.897 1.175,-0.447 0.164,-1.633 -1.184,-1.39 m -75.127,8.973 c 0.145,0.144 0.496,0.601 0.781,1.015 0.284,0.414 0.571,0.689 0.637,0.612 0.065,-0.077 0.401,-0.533 0.746,-1.015 0.668,-0.934 1.166,-1.116 1.669,-0.613 0.421,0.421 0.316,0.768 -0.655,2.163 -0.865,1.242 -0.916,1.373 -0.916,2.325 0,1.16 -0.31,1.75 -0.917,1.75 -0.602,0 -0.917,-0.591 -0.917,-1.723 0,-0.922 -0.057,-1.064 -0.916,-2.291 -0.911,-1.3 -1.1,-1.903 -0.717,-2.286 0.281,-0.28 0.894,-0.249 1.205,0.063 m 55.333,-0.001 c 0.217,0.217 0.262,0.732 0.262,2.988 0,2.256 -0.045,2.772 -0.262,2.988 -0.309,0.309 -0.924,0.343 -1.2,0.067 -0.15,-0.15 -0.296,-0.15 -0.625,0 -1.55,0.706 -3.078,-0.427 -3.079,-2.285 -0.001,-1.801 1.366,-2.863 2.958,-2.297 0.34,0.121 0.375,0.082 0.375,-0.424 0,-1.083 0.919,-1.689 1.571,-1.037 m 10.957,0.014 c 0.241,0.218 0.305,0.526 0.306,1.458 l 0.002,1.183 0.592,-0.625 c 0.66,-0.696 1.257,-0.81 1.609,-0.306 0.276,0.393 0.828,-0.071 1.022,-0.858 0.204,-0.829 1.276,-0.838 1.65,-0.015 0.114,0.25 0.376,0.624 0.582,0.83 0.478,0.478 0.472,0.651 -0.041,1.126 -0.587,0.543 -0.6,1.703 -0.023,1.923 0.613,0.233 0.774,0.817 0.344,1.246 -0.997,0.997 -2.451,0.086 -2.54,-1.593 -0.05,-0.932 -0.146,-1.315 -0.399,-1.59 l -0.332,-0.362 -0.516,0.588 c -0.502,0.572 -0.509,0.6 -0.239,1.029 0.811,1.288 0.87,1.49 0.541,1.853 -0.473,0.523 -0.937,0.418 -1.623,-0.368 -0.574,-0.658 -0.62,-0.681 -0.625,-0.308 -0.014,1.147 -1.821,1.339 -1.844,0.196 -0.004,-0.239 -0.026,-0.24 -0.208,-0.008 -0.896,1.137 -3.786,1.089 -3.786,-0.062 0,-0.618 0.364,-0.817 1.281,-0.702 l 0.802,0.1 -0.833,-0.336 c -0.459,-0.185 -0.957,-0.486 -1.108,-0.669 -0.272,-0.33 -0.275,-0.33 -0.373,0.061 -0.117,0.467 -0.505,0.593 -1.853,0.603 -0.8,0.006 -0.938,0.043 -0.689,0.188 0.183,0.106 0.637,0.137 1.102,0.075 1.19,-0.158 1.685,0.841 0.671,1.352 -1.661,0.837 -4,-0.421 -4,-2.151 0,-2.399 3.265,-3.457 4.484,-1.452 l 0.303,0.498 0.213,-0.514 c 0.494,-1.192 3.041,-1.397 3.726,-0.3 0.299,0.478 -0.326,1.012 -1.054,0.901 l -0.589,-0.09 0.557,0.209 c 0.306,0.115 0.737,0.383 0.958,0.596 l 0.402,0.387 v -1.88 c 0,-2.348 0.53,-3.116 1.528,-2.213 m -23.516,0.868 c 0.145,0.309 0.389,0.631 0.543,0.717 0.398,0.223 0.362,1.083 -0.055,1.306 -0.523,0.28 -0.478,1.62 0.06,1.825 1.005,0.382 0.511,1.508 -0.661,1.508 -1.17,0 -1.566,-0.497 -1.566,-1.966 0,-0.937 -0.061,-1.204 -0.333,-1.45 -0.184,-0.166 -0.334,-0.475 -0.334,-0.687 0,-0.214 0.148,-0.464 0.334,-0.563 0.183,-0.098 0.333,-0.349 0.333,-0.556 0,-0.964 1.243,-1.062 1.679,-0.134 m -35.318,0.815 c 2.126,1.251 1.177,4.541 -1.311,4.541 -2.553,0 -3.552,-3.126 -1.443,-4.517 0.624,-0.411 2.074,-0.424 2.754,-0.024 m 3.046,0.078 c 0.171,0.245 0.26,0.745 0.26,1.467 0,1.369 0.326,1.813 0.904,1.234 0.19,-0.189 0.262,-0.593 0.262,-1.466 0,-1.325 0.15,-1.605 0.858,-1.605 0.77,0 0.976,0.51 0.976,2.417 0,2.026 -0.221,2.513 -1.063,2.342 -0.611,-0.124 -0.762,-0.124 -1.812,0.008 -1.377,0.173 -1.959,-0.598 -1.959,-2.595 0,-2.099 0.758,-2.967 1.574,-1.802 m 5.004,-0.213 c 0.059,0.097 0.281,0.092 0.581,-0.012 1.168,-0.408 1.737,0.971 0.597,1.447 -0.738,0.308 -0.922,0.669 -0.922,1.802 0,1.018 -0.27,1.439 -0.919,1.439 -0.702,0 -0.915,-0.562 -0.915,-2.416 0,-1.925 0.204,-2.417 1,-2.417 0.264,0 0.524,0.071 0.578,0.157 m 5.506,0.019 c 0.091,0.002 0.361,-0.043 0.598,-0.1 1.057,-0.256 1.378,1.111 0.36,1.535 -0.809,0.336 -0.869,0.449 -0.872,1.626 -0.004,1.428 -0.726,2.05 -1.532,1.321 -0.26,-0.237 -0.304,-0.547 -0.304,-2.155 0,-2.16 0.16,-2.51 1.068,-2.332 0.283,0.056 0.59,0.103 0.682,0.105 m 5.6,0.431 c 1.263,1.262 0.802,2.393 -0.975,2.393 -0.723,0 -1.026,0.058 -0.95,0.181 0.067,0.108 0.488,0.159 1.03,0.125 1.169,-0.072 1.614,0.365 1.064,1.045 -0.89,1.099 -3.762,0.297 -4.202,-1.173 -0.722,-2.41 2.28,-4.324 4.033,-2.571 m 2.566,-0.442 c 0.092,-0.004 0.525,-0.051 0.962,-0.103 0.583,-0.071 0.906,-0.023 1.212,0.178 0.378,0.247 0.453,0.249 0.784,0.017 0.836,-0.586 2.308,-0.219 2.773,0.69 0.305,0.597 0.24,3.218 -0.09,3.582 -0.776,0.857 -1.556,0.094 -1.56,-1.524 -0.005,-2.143 -0.866,-2.203 -0.997,-0.07 -0.159,2.567 -1.834,2.796 -1.834,0.252 0,-2.228 -1.043,-2.387 -1.133,-0.174 -0.053,1.316 -0.308,1.82 -0.921,1.82 -0.784,0 -0.946,-0.416 -0.946,-2.43 0,-2.16 0.161,-2.51 1.069,-2.332 0.283,0.056 0.59,0.098 0.681,0.094 m 10.218,0.172 c 2.078,1.267 1.058,4.497 -1.419,4.496 -2.144,-0.001 -3.368,-2.524 -1.951,-4.021 0.85,-0.899 2.332,-1.108 3.37,-0.475 m 8.385,0.31 c 1.305,1.304 0.869,2.353 -0.978,2.353 -0.744,0 -1.026,0.056 -0.945,0.188 0.075,0.121 0.433,0.155 1.01,0.095 1.495,-0.154 1.995,0.87 0.671,1.373 -1.382,0.526 -3.092,-0.045 -3.62,-1.207 -1.122,-2.473 1.957,-4.707 3.862,-2.802 m 28.607,-0.315 c 2.065,1.259 1.317,4.229 -1.124,4.463 -2.631,0.253 -3.859,-2.965 -1.686,-4.417 0.74,-0.494 2.04,-0.515 2.81,-0.046 m 2.822,-0.15 c 0.132,0.132 0.277,0.132 0.523,0 1.434,-0.767 3.051,0.259 3.159,2.005 0.11,1.781 -0.781,2.732 -2.422,2.583 -0.874,-0.079 -0.875,-0.079 -0.875,0.409 0,0.906 -0.772,1.379 -1.463,0.895 -0.414,-0.29 -0.577,-5.043 -0.198,-5.752 0.191,-0.356 0.975,-0.442 1.276,-0.14 m -26.596,1.423 c -0.537,0.377 -0.491,1.351 0.075,1.566 0.711,0.27 1.101,-0.057 1.04,-0.872 -0.06,-0.808 -0.532,-1.102 -1.115,-0.694 m -46.813,0.006 c -0.766,0.309 -0.531,1.556 0.294,1.556 0.83,0 1.069,-1.107 0.325,-1.505 -0.167,-0.089 -0.327,-0.156 -0.356,-0.149 -0.029,0.007 -0.147,0.051 -0.263,0.098 m 31.752,0.069 c -0.628,0.366 -0.262,1.487 0.486,1.487 0.682,0 0.917,-0.806 0.389,-1.334 -0.376,-0.376 -0.465,-0.392 -0.875,-0.153 m 37.076,0.082 c -0.653,0.457 -0.386,1.405 0.396,1.405 0.767,0 0.983,-0.994 0.312,-1.437 -0.29,-0.192 -0.396,-0.187 -0.708,0.032 m 5.142,-0.023 c -0.273,0.328 -0.154,1.272 0.186,1.485 0.511,0.32 1.138,-0.119 1.138,-0.798 0,-0.809 -0.855,-1.253 -1.324,-0.687"
       stroke="none"
       fill="#e3e3e3"
       fill-rule="evenodd" />
    <path
       id="path1"
       d="m 199.333,14.239 c -0.898,0.331 -2.948,1.388 -8.578,4.422 -2.844,1.533 -5.874,3.148 -6.732,3.589 -3.57,1.837 -3.676,1.691 4.242,5.845 2.742,1.438 6.11,3.215 7.485,3.948 4.536,2.42 3.395,2.635 12.583,-2.376 1.971,-1.074 4.798,-2.566 6.281,-3.315 3.599,-1.817 4.094,-2.381 2.93,-3.341 -2,-1.649 -2.234,-1.575 -12.109,3.806 -5.464,2.978 -5.1,2.855 -6.456,2.181 C 194.808,26.924 190,24.246 190,23.997 c 0,-0.402 0.364,-0.676 2.417,-1.812 2.26,-1.252 1.784,-1.292 5.189,0.431 3.862,1.955 4.549,2.023 6.602,0.66 1.049,-0.697 1.189,-0.548 -2.166,-2.29 -3.473,-1.803 -3.445,-1.784 -3.187,-2.095 0.307,-0.37 3.444,-2.093 4.029,-2.212 1.091,-0.224 0.479,-1.266 -1.276,-2.174 -1.065,-0.552 -1.396,-0.59 -2.275,-0.266 m -22.586,22.053 c -0.155,6.968 -0.032,13.2 0.279,14.118 0.193,0.567 0.4,0.759 1.474,1.368 2.616,1.482 2.548,1.54 2.623,-2.224 0.094,-4.703 -0.353,-4.563 5.213,-1.633 5.526,2.91 5.081,2.348 5.223,6.597 0.144,4.306 0.123,4.256 2.322,5.399 2.412,1.253 2.192,2.169 2.253,-9.397 l 0.05,-9.635 -1.02,-0.944 c -1.755,-1.625 -2.429,-1.772 -2.886,-0.63 -0.337,0.844 -0.611,2.899 -0.611,4.586 0,2.308 -0.334,2.407 -3,0.897 -0.871,-0.493 -2.683,-1.481 -4.026,-2.194 -1.343,-0.714 -2.656,-1.521 -2.917,-1.793 l -0.474,-0.494 -0.083,-3.727 c -0.08,-3.571 -0.099,-3.743 -0.456,-4.123 -0.507,-0.539 -2.901,-1.796 -3.42,-1.796 h -0.419 l -0.125,5.625 m 44.871,-5.206 c -2.423,0.901 -2.682,1.414 -2.799,5.551 -0.111,3.915 -0.168,4.129 -1.304,4.844 -2.744,1.729 -8.772,4.73 -8.982,4.471 -0.09,-0.111 -0.192,-1.718 -0.228,-3.573 -0.039,-2.086 -0.132,-3.439 -0.242,-3.549 -0.333,-0.333 -3.583,1.213 -3.814,1.815 -0.404,1.055 -0.476,19.528 -0.077,19.927 0.359,0.359 3.73,-1.676 3.916,-2.364 0.068,-0.252 0.17,-1.975 0.226,-3.83 l 0.103,-3.372 0.5,-0.493 c 0.556,-0.549 8.146,-4.634 8.883,-4.781 0.853,-0.171 0.941,0.14 1.033,3.668 l 0.084,3.183 0.416,-0.047 c 1.199,-0.135 3.233,-1.584 3.505,-2.496 0.239,-0.802 0.434,-17.708 0.213,-18.54 -0.179,-0.676 -0.488,-0.766 -1.433,-0.414 m -66.535,47.115 c -0.729,0.419 -0.739,0.493 -0.744,5.818 -0.006,5.849 0.022,5.981 1.314,5.981 1.079,0 1.25,-0.357 1.347,-2.809 l 0.083,-2.108 h 2.167 2.167 l 0.083,2.108 c 0.097,2.452 0.268,2.809 1.347,2.809 1.314,0 1.34,-0.123 1.285,-6.129 l -0.049,-5.234 -0.393,-0.319 c -1.272,-1.029 -2.091,-0.082 -2.162,2.501 l -0.056,2.014 H 159.236 157 v -1.725 c 0,-2.657 -0.646,-3.636 -1.917,-2.907 m 52.493,0.208 -0.409,0.409 v 5.235 c 0,5.848 0.05,6.114 1.16,6.114 1.079,0 1.247,-0.381 1.34,-3.027 0.093,-2.668 0.213,-3.037 1.111,-3.412 1.631,-0.682 2.285,0.247 2.361,3.355 0.071,2.919 0.826,3.952 2.018,2.76 0.577,-0.577 0.711,-5.284 0.188,-6.593 -0.78,-1.954 -3.593,-2.588 -4.912,-1.106 -0.626,0.701 -0.766,0.478 -0.766,-1.216 0,-2.631 -0.898,-3.712 -2.091,-2.519 m 13.666,0 c -0.626,0.626 -0.547,0.827 1.508,3.845 l 1.917,2.814 v 2.11 c 0,2.412 0.227,2.989 1.178,2.989 0.99,0 1.155,-0.409 1.159,-2.875 l 0.004,-2.209 1.911,-2.75 c 2.096,-3.015 2.234,-3.417 1.387,-4.047 -0.787,-0.585 -1.141,-0.329 -2.764,1.995 -0.811,1.162 -1.553,2.139 -1.648,2.171 -0.096,0.032 -0.825,-0.88 -1.622,-2.027 -1.791,-2.58 -2.196,-2.849 -3.03,-2.016 m -53.325,3.028 c -2.239,0.551 -2.098,2.265 0.156,1.898 1.862,-0.303 3.094,0.242 3.094,1.369 0,0.492 -0.01,0.498 -0.625,0.356 -2.787,-0.64 -4.777,0.373 -4.77,2.427 0.008,2.2 2.355,3.399 4.451,2.273 l 0.805,-0.432 0.499,0.419 c 0.66,0.556 1.348,0.548 1.794,-0.019 0.5,-0.636 0.516,-5.586 0.022,-6.675 -0.624,-1.373 -3.245,-2.154 -5.426,-1.616 m 7.817,0.247 c -0.547,0.605 -0.481,7.713 0.076,8.164 1.337,1.083 2.023,0.142 2.023,-2.776 0,-3.04 0.335,-3.739 1.79,-3.739 1.415,0 1.71,0.691 1.71,3.992 0,2.348 0.212,2.842 1.219,2.842 0.94,0 1.115,-0.438 1.116,-2.792 0.001,-3.153 0.401,-4.042 1.817,-4.042 1.37,0 1.679,0.723 1.681,3.93 0.001,2.712 0.81,3.761 1.991,2.58 0.676,-0.676 0.717,-5.385 0.06,-6.858 -0.814,-1.825 -3.498,-2.284 -5.067,-0.867 l -0.663,0.599 -0.452,-0.423 c -1.27,-1.188 -3.126,-1.313 -4.391,-0.296 -0.415,0.334 -0.732,0.489 -0.769,0.376 -0.331,-0.993 -1.52,-1.376 -2.141,-0.69 m 15.939,0.014 c -0.561,0.602 -0.521,7.573 0.046,8.106 1.29,1.212 2.114,0.079 2.114,-2.906 0,-2.232 0.34,-2.859 1.737,-3.211 0.861,-0.216 1.263,-0.562 1.263,-1.084 0,-1.06 -1.18,-1.347 -2.233,-0.544 -0.591,0.451 -0.933,0.466 -0.933,0.04 0,-0.735 -1.417,-1.02 -1.994,-0.401 m 7.66,-0.169 c -1.911,0.544 -1.443,2.134 0.533,1.813 0.514,-0.084 1.074,-0.125 1.243,-0.091 0.169,0.034 0.512,0.105 0.761,0.158 0.62,0.13 1.13,0.72 1.13,1.308 0,0.462 -0.029,0.482 -0.542,0.377 -3.122,-0.637 -4.875,0.228 -4.875,2.406 0,2.437 2.533,3.474 4.87,1.994 0.335,-0.213 0.412,-0.193 0.842,0.219 0.557,0.534 1.177,0.582 1.728,0.135 0.576,-0.467 0.61,-5.852 0.044,-6.931 -0.717,-1.367 -3.465,-2.033 -5.734,-1.388 m 33,-0.007 c -1.94,0.576 -1.44,2.141 0.578,1.812 1.888,-0.307 3.089,0.247 3.089,1.424 0,0.404 -0.045,0.437 -0.458,0.338 -3,-0.716 -4.94,0.223 -4.953,2.396 -0.013,2.225 2.336,3.413 4.477,2.263 l 0.815,-0.438 0.444,0.425 c 0.609,0.583 1.369,0.571 1.843,-0.031 0.593,-0.754 0.446,-6.021 -0.195,-6.989 -0.789,-1.192 -3.629,-1.796 -5.64,-1.2 m 8.068,0.162 c -0.642,0.708 -0.551,7.499 0.108,8.159 1.114,1.114 1.991,0.114 1.992,-2.27 0.001,-2.848 0.339,-3.527 1.955,-3.934 1.221,-0.307 1.554,-1.202 0.687,-1.849 -0.51,-0.38 -1.364,-0.208 -1.899,0.383 -0.351,0.388 -0.744,0.429 -0.744,0.077 0,-0.824 -1.5,-1.228 -2.099,-0.566 m -69.922,4.667 c 1.456,0.508 0.9,2.149 -0.729,2.149 -1.565,0 -2.18,-1.516 -0.85,-2.095 0.64,-0.279 0.908,-0.288 1.579,-0.054 m 31.751,-0.025 c 0.979,0.372 1.126,1.481 0.257,1.931 -1.081,0.559 -2.487,0.045 -2.487,-0.91 0,-0.904 1.151,-1.431 2.23,-1.021 m 33,0 c 0.555,0.211 0.994,0.897 0.855,1.334 -0.254,0.801 -1.872,1.104 -2.646,0.495 -1.19,-0.937 0.256,-2.413 1.791,-1.829 m -77.286,9.452 c -0.243,0.244 -0.071,0.64 0.806,1.857 0.872,1.209 0.917,1.321 0.917,2.286 0,1.114 0.278,1.7 0.726,1.528 0.215,-0.083 0.274,-0.336 0.274,-1.178 0,-1.039 0.032,-1.122 1.023,-2.585 0.857,-1.266 0.989,-1.554 0.813,-1.766 -0.357,-0.43 -0.581,-0.293 -1.412,0.862 l -0.802,1.116 -0.436,-0.509 c -0.24,-0.28 -0.646,-0.782 -0.902,-1.116 -0.444,-0.579 -0.765,-0.737 -1.007,-0.495 m 55.229,0.211 c -0.095,0.177 -0.173,0.636 -0.173,1.019 0,0.648 -0.026,0.689 -0.375,0.576 -1.841,-0.598 -2.958,0.079 -2.958,1.792 0,1.568 1.304,2.518 2.606,1.897 0.571,-0.272 0.618,-0.272 0.924,0.005 0.245,0.222 0.39,0.249 0.604,0.114 0.354,-0.223 0.515,-5.094 0.183,-5.495 -0.27,-0.325 -0.609,-0.286 -0.811,0.092 M 224.2,95.867 c -0.31,0.309 -0.275,4.968 0.04,5.393 0.394,0.53 0.832,0.123 0.895,-0.829 0.062,-0.963 0.236,-0.936 1.071,0.165 1.044,1.376 1.764,0.9 0.812,-0.537 -0.542,-0.818 -0.524,-1.034 0.133,-1.628 0.421,-0.381 0.454,-0.901 0.068,-1.049 -0.2,-0.077 -0.479,0.116 -0.968,0.672 -0.969,1.101 -1.084,1.037 -1.084,-0.604 0,-1.338 -0.146,-1.783 -0.584,-1.783 -0.101,0 -0.273,0.09 -0.383,0.2 m -23.749,0.404 c -0.065,0.065 -0.118,0.292 -0.118,0.505 0,0.213 -0.15,0.482 -0.333,0.596 -0.183,0.115 -0.333,0.291 -0.333,0.392 0,0.102 0.15,0.32 0.333,0.486 0.271,0.246 0.333,0.513 0.333,1.442 0,1.363 0.31,1.808 1.256,1.808 0.923,0 0.95,-0.737 0.038,-1.041 -0.523,-0.174 -0.25,-2.292 0.296,-2.292 0.366,0 0.293,-0.629 -0.088,-0.75 -0.19,-0.06 -0.389,-0.331 -0.468,-0.636 -0.132,-0.512 -0.634,-0.792 -0.916,-0.51 m 28.754,0.091 c -0.113,0.112 -0.205,0.316 -0.205,0.452 0,0.136 -0.169,0.428 -0.375,0.648 l -0.375,0.4 0.355,0.288 c 0.295,0.239 0.367,0.51 0.421,1.585 0.075,1.489 0.321,1.814 1.307,1.731 0.719,-0.061 0.906,-0.617 0.298,-0.883 -0.554,-0.242 -0.668,-2.162 -0.139,-2.331 0.425,-0.134 0.453,-0.754 0.039,-0.862 -0.166,-0.044 -0.372,-0.318 -0.458,-0.609 -0.168,-0.571 -0.538,-0.749 -0.868,-0.419 m -65.393,1.252 c -0.98,0.608 -1.299,2.101 -0.631,2.95 1.331,1.692 3.986,0.899 3.986,-1.189 0,-1.579 -1.977,-2.616 -3.355,-1.761 m 4.423,0.136 c -0.612,2.437 0.677,4.412 2.266,3.473 0.437,-0.258 0.488,-0.258 0.746,0 0.776,0.776 1.073,0.099 0.937,-2.14 -0.099,-1.639 -0.107,-1.666 -0.517,-1.666 -0.405,0 -0.419,0.04 -0.5,1.389 -0.15,2.5 -1.834,2.695 -1.834,0.212 0,-1.523 -0.802,-2.448 -1.098,-1.268 m 5.209,-0.306 c -0.25,0.251 -0.122,3.896 0.141,3.997 0.483,0.185 0.748,-0.267 0.748,-1.272 0,-1.079 0.367,-1.724 1.081,-1.903 0.264,-0.067 0.419,-0.223 0.419,-0.422 0,-0.423 -0.32,-0.513 -0.858,-0.242 -0.376,0.189 -0.472,0.186 -0.645,-0.023 -0.212,-0.255 -0.692,-0.328 -0.886,-0.135 m 5.256,0.089 c -0.324,0.324 -0.27,3.535 0.064,3.812 0.513,0.426 0.811,-0.015 0.903,-1.334 0.083,-1.2 0.347,-1.678 0.928,-1.678 0.42,0 0.647,-0.496 0.359,-0.784 -0.245,-0.245 -0.304,-0.243 -0.708,0.022 -0.402,0.263 -0.466,0.265 -0.732,0.025 -0.348,-0.315 -0.547,-0.33 -0.814,-0.063 m 3.837,0.211 c -1.958,1.648 0.059,4.554 2.505,3.608 0.854,-0.33 0.573,-0.685 -0.542,-0.685 -2.136,0 -2.166,-1.029 -0.034,-1.167 l 1.284,-0.083 -0.027,-0.565 c -0.065,-1.347 -2.072,-2.045 -3.186,-1.108 m 4.311,-0.178 c -0.337,0.406 -0.167,3.606 0.203,3.833 0.494,0.302 0.782,-0.278 0.782,-1.572 0,-1.2 0.267,-1.66 0.962,-1.66 0.581,0 0.872,0.617 0.872,1.85 0,2.111 0.912,2.087 1.035,-0.028 0.144,-2.502 1.798,-2.663 1.798,-0.176 0,2.103 1.035,2.409 1.135,0.336 0.119,-2.471 -0.873,-3.481 -2.484,-2.53 -0.458,0.27 -0.511,0.27 -0.968,0 -0.607,-0.358 -1.328,-0.366 -1.823,-0.019 -0.349,0.244 -0.405,0.244 -0.675,0 -0.362,-0.328 -0.586,-0.337 -0.837,-0.034 m 9.069,-0.074 c -0.628,0.26 -1.12,0.962 -1.195,1.706 -0.205,2.013 2.346,3.081 3.736,1.565 1.567,-1.71 -0.35,-4.177 -2.541,-3.271 m 8.043,0.102 c -1.1,0.597 -1.296,2.211 -0.389,3.2 0.632,0.691 2.354,0.919 2.985,0.395 0.435,-0.361 0.165,-0.522 -0.873,-0.522 -0.723,0 -1.034,-0.077 -1.241,-0.305 -0.6,-0.663 -0.275,-0.862 1.405,-0.862 H 207 v -0.517 c 0,-1.263 -1.775,-2.075 -3.04,-1.389 m 11.783,0.296 c -1.752,1.752 0.248,4.384 2.632,3.462 0.84,-0.325 0.575,-0.685 -0.505,-0.685 -0.988,0 -1.703,-0.312 -1.703,-0.742 0,-0.327 0.389,-0.425 1.685,-0.425 1.312,0 1.494,-0.164 1.139,-1.023 -0.509,-1.227 -2.287,-1.548 -3.248,-0.587 m 4.795,-0.352 c -1.029,0.497 -0.708,1.608 0.618,2.137 1.571,0.627 1.46,1.336 -0.152,0.974 -0.85,-0.191 -1.239,0.021 -0.815,0.445 0.478,0.478 2.01,0.509 2.515,0.051 0.929,-0.842 0.596,-1.758 -0.778,-2.142 -1.419,-0.398 -1.318,-1.228 0.105,-0.866 0.76,0.192 0.969,0.142 0.969,-0.234 0,-0.508 -1.655,-0.753 -2.462,-0.365 m 12.16,0.133 c -2.14,1.305 -0.472,4.413 1.976,3.68 2.293,-0.687 1.665,-4.016 -0.757,-4.016 -0.376,0 -0.908,0.147 -1.219,0.336 m 4.403,-0.074 c -0.272,0.709 -0.106,5.055 0.2,5.219 0.479,0.256 0.738,-0.049 0.827,-0.974 0.069,-0.712 0.129,-0.841 0.352,-0.748 1.022,0.429 1.177,0.457 1.707,0.305 1.377,-0.395 1.787,-2.595 0.669,-3.594 -0.603,-0.539 -1.413,-0.623 -2.181,-0.226 -0.418,0.216 -0.499,0.216 -0.679,0 -0.268,-0.324 -0.768,-0.314 -0.895,0.018 m -52.744,0.725 c 0.522,0.426 0.24,0.719 -0.625,0.648 -0.77,-0.064 -0.994,-0.543 -0.369,-0.794 0.54,-0.216 0.553,-0.214 0.994,0.146 m 21.373,0.019 c 0.329,0.305 -0.055,0.659 -0.715,0.659 -0.817,0 -1.029,-0.284 -0.518,-0.698 0.371,-0.3 0.886,-0.284 1.233,0.039 m 6.778,-0.087 c 1.154,0.597 0.443,2.611 -0.823,2.333 -1.128,-0.247 -1.333,-1.889 -0.298,-2.389 0.493,-0.239 0.557,-0.235 1.121,0.056 m 5.167,0.052 c 0.521,0.422 0.285,0.694 -0.602,0.694 -0.845,0 -1.083,-0.54 -0.365,-0.828 0.525,-0.211 0.544,-0.208 0.967,0.134 m -51.917,0.27 c 0.793,0.794 0.355,1.924 -0.747,1.924 -1.084,0 -1.554,-1.138 -0.787,-1.906 0.537,-0.537 1.009,-0.542 1.534,-0.018 m 31.833,0 c 0.47,0.469 0.523,1.021 0.15,1.554 -0.481,0.686 -1.872,0.373 -1.927,-0.434 -0.092,-1.349 0.914,-1.983 1.777,-1.12 m 36.795,-0.218 c 1.053,0.554 0.726,2.142 -0.44,2.142 -1.2,0 -1.581,-1.538 -0.529,-2.134 0.424,-0.241 0.525,-0.241 0.969,-0.008 m 5.629,0.121 c 0.847,0.685 0.289,2.188 -0.812,2.188 -0.655,0 -1.036,-0.45 -1.036,-1.221 0,-1.171 0.97,-1.679 1.848,-0.967"
       stroke="none"
       fill="#45a41d"
       fill-rule="evenodd" />
    <path
       id="path2"
       d="m 201.542,24.448 c 0.16,0.042 0.423,0.042 0.583,0 0.16,-0.042 0.029,-0.076 -0.292,-0.076 -0.321,0 -0.452,0.034 -0.291,0.076 M 176.571,35.75 c 0,1.925 0.024,2.69 0.053,1.699 0.03,-0.99 0.03,-2.565 0,-3.5 -0.029,-0.934 -0.054,-0.124 -0.053,1.801 m 41.993,1.917 c 0,1.146 0.027,1.614 0.059,1.041 0.033,-0.573 0.033,-1.51 0,-2.083 -0.032,-0.573 -0.059,-0.104 -0.059,1.042 m -37.335,-0.084 c 0,1.009 0.028,1.4 0.061,0.869 0.033,-0.53 0.033,-1.355 -0.001,-1.833 -0.033,-0.478 -0.06,-0.044 -0.06,0.964 m 14.264,2.459 c 0.691,0.736 0.84,0.868 0.84,0.743 0,-0.027 -0.356,-0.383 -0.791,-0.792 l -0.792,-0.743 0.743,0.792 m 12.896,0.458 c 0,0.688 0.03,0.969 0.066,0.625 0.036,-0.344 0.036,-0.906 0,-1.25 -0.036,-0.344 -0.066,-0.062 -0.066,0.625 m -11.978,8.75 c 0,4.583 0.021,6.434 0.047,4.113 0.026,-2.321 0.026,-6.071 0,-8.333 -0.026,-2.262 -0.047,-0.363 -0.047,4.22 m -4.869,-7.167 c 0.002,0.367 0.036,0.497 0.076,0.29 0.04,-0.207 0.038,-0.507 -0.003,-0.667 -0.042,-0.159 -0.075,0.011 -0.073,0.377 m 12.33,0.417 c 0,0.321 0.034,0.452 0.076,0.292 0.042,-0.161 0.042,-0.423 0,-0.584 -0.042,-0.16 -0.076,-0.029 -0.076,0.292 m -12.552,2.542 c -0.049,0.358 -0.024,0.562 0.06,0.478 0.08,-0.08 0.119,-0.361 0.086,-0.625 -0.055,-0.44 -0.066,-0.429 -0.146,0.147 m 31.898,1.041 c 0.001,0.55 0.032,0.755 0.069,0.456 0.038,-0.3 0.037,-0.75 -0.001,-1 -0.038,-0.251 -0.069,-0.006 -0.068,0.544 m -19.488,1.5 c 0.001,1.1 0.028,1.529 0.06,0.952 0.033,-0.576 0.033,-1.476 0,-2 -0.033,-0.523 -0.06,-0.052 -0.06,1.048 M 181.235,49.5 c 0,1.512 0.025,2.131 0.056,1.375 0.031,-0.756 0.031,-1.994 0,-2.75 -0.031,-0.756 -0.056,-0.138 -0.056,1.375 m -4.68,-1.417 c 0,0.642 0.031,0.884 0.067,0.538 0.036,-0.346 0.035,-0.871 -0.002,-1.166 -0.037,-0.296 -0.066,-0.013 -0.065,0.628 m 42.007,2.334 c 10e-4,1.008 0.028,1.399 0.061,0.869 0.034,-0.531 0.033,-1.356 0,-1.834 -0.034,-0.478 -0.061,-0.044 -0.061,0.965 M 191.4,54.583 c 0,1.375 0.026,1.916 0.057,1.201 0.032,-0.715 0.031,-1.84 0,-2.5 -0.032,-0.66 -0.057,-0.076 -0.057,1.299 m 27.409,-1.874 c 0.084,0.084 0.33,0.125 0.547,0.091 0.333,-0.053 0.31,-0.076 -0.153,-0.153 -0.331,-0.055 -0.487,-0.031 -0.394,0.062 m -10.413,2.958 c 0,1.054 0.027,1.485 0.06,0.958 0.034,-0.527 0.034,-1.39 0,-1.917 -0.033,-0.527 -0.06,-0.096 -0.06,0.959 m -4.67,1.75 c -0.001,0.825 0.028,1.183 0.062,0.796 0.035,-0.386 0.036,-1.061 10e-4,-1.5 -0.034,-0.438 -0.063,-0.121 -0.063,0.704 m -46.664,23.25 c 0,0.962 0.027,1.356 0.061,0.875 0.034,-0.482 0.034,-1.269 0,-1.75 -0.034,-0.482 -0.061,-0.088 -0.061,0.875 m 4.333,0 c 0,0.962 0.028,1.356 0.061,0.875 0.034,-0.482 0.034,-1.269 0,-1.75 -0.033,-0.482 -0.061,-0.088 -0.061,0.875 m 48.298,-0.135 c -0.014,0.888 0.03,1.65 0.099,1.693 0.068,0.043 0.104,-0.459 0.079,-1.115 -0.078,-2.031 -0.15,-2.266 -0.178,-0.578 m -25.911,1.557 c -0.257,0.226 -0.401,0.411 -0.32,0.411 0.08,0 0.323,-0.187 0.538,-0.417 0.498,-0.53 0.388,-0.527 -0.218,0.006 m 56.122,3.661 c 0,1.925 0.024,2.69 0.054,1.699 0.029,-0.99 0.029,-2.565 0,-3.5 -0.03,-0.934 -0.054,-0.124 -0.054,1.801 m -81.606,-2.96 c 0.577,0.033 1.477,0.033 2,0 0.524,-0.033 0.052,-0.06 -1.048,-0.06 -1.1,10e-4 -1.528,0.028 -0.952,0.06 m 10.327,0.661 c 0.206,0.04 0.544,0.04 0.75,0 0.206,-0.04 0.037,-0.072 -0.375,-0.072 -0.413,0 -0.581,0.032 -0.375,0.072 m 31.835,0 c 0.208,0.04 0.508,0.039 0.667,-0.003 0.159,-0.042 -0.01,-0.074 -0.377,-0.073 -0.367,0.002 -0.497,0.036 -0.29,0.076 m 33,0 c 0.208,0.04 0.508,0.039 0.667,-0.003 0.159,-0.042 -0.01,-0.074 -0.377,-0.073 -0.367,0.002 -0.497,0.036 -0.29,0.076 m -43.726,3.216 c 0,1.42 0.025,2.002 0.057,1.291 0.031,-0.71 0.031,-1.873 0,-2.583 -0.032,-0.71 -0.057,-0.129 -0.057,1.292 m 26,0 c 0,1.42 0.025,2.002 0.057,1.291 0.031,-0.71 0.031,-1.873 0,-2.583 -0.032,-0.71 -0.057,-0.129 -0.057,1.292 m -31.836,0.25 c 0,1.191 0.027,1.657 0.059,1.034 0.032,-0.622 0.032,-1.597 0,-2.166 -0.033,-0.569 -0.059,-0.06 -0.059,1.132 m -22.502,0.416 c 0,1.055 0.027,1.486 0.06,0.959 0.034,-0.527 0.034,-1.39 0,-1.917 -0.033,-0.527 -0.06,-0.096 -0.06,0.958 m 48.334,0.084 c 0.001,1.1 0.028,1.528 0.06,0.951 0.033,-0.576 0.033,-1.476 0,-2 -0.033,-0.523 -0.06,-0.051 -0.06,1.049 m -52.668,0 c 10e-4,1.008 0.028,1.399 0.061,0.869 0.034,-0.531 0.033,-1.356 0,-1.834 -0.034,-0.478 -0.061,-0.044 -0.061,0.965 m 36.833,0.083 c 0,0.962 0.028,1.356 0.061,0.875 0.034,-0.481 0.034,-1.269 0,-1.75 -0.033,-0.481 -0.061,-0.088 -0.061,0.875 m -28.356,0 c 0,0.321 0.034,0.452 0.076,0.292 0.042,-0.161 0.042,-0.423 0,-0.584 -0.042,-0.16 -0.076,-0.029 -0.076,0.292 m 47.34,9.167 c 0,0.412 0.032,0.581 0.072,0.375 0.04,-0.207 0.04,-0.544 0,-0.75 -0.04,-0.207 -0.072,-0.038 -0.072,0.375 m -43.491,2.083 c 0.001,0.642 0.031,0.884 0.067,0.538 0.036,-0.346 0.035,-0.871 -0.001,-1.167 -0.037,-0.296 -0.067,-0.013 -0.066,0.629 m 3.007,0.75 c 0,0.962 0.028,1.356 0.061,0.875 0.034,-0.481 0.034,-1.269 0,-1.75 -0.033,-0.481 -0.061,-0.088 -0.061,0.875 m 0.666,-0.083 c 0,0.916 0.028,1.27 0.062,0.786 0.034,-0.485 0.033,-1.235 -10e-4,-1.667 -0.034,-0.432 -0.062,-0.036 -0.061,0.881 m 28.507,-0.853 c -0.049,0.127 -0.064,0.559 -0.033,0.959 0.054,0.704 0.058,0.696 0.135,-0.232 0.081,-0.972 0.057,-1.143 -0.102,-0.727 m 28.644,0.769 c 0,0.413 0.033,0.582 0.072,0.375 0.04,-0.206 0.04,-0.543 0,-0.75 -0.039,-0.206 -0.072,-0.037 -0.072,0.375 m -48.673,0 c 0,0.321 0.034,0.452 0.076,0.292 0.042,-0.16 0.042,-0.423 0,-0.583 -0.042,-0.161 -0.076,-0.029 -0.076,0.291 m 9.349,0.584 c 0.001,0.641 0.031,0.883 0.067,0.538 0.036,-0.346 0.035,-0.871 -0.001,-1.167 -0.037,-0.296 -0.067,-0.013 -0.066,0.629 m 21.984,-0.584 c 0,0.321 0.034,0.452 0.076,0.292 0.042,-0.16 0.042,-0.423 0,-0.583 -0.042,-0.161 -0.076,-0.029 -0.076,0.291 M 160.887,100 c 0,0.596 0.03,0.84 0.067,0.542 0.037,-0.298 0.037,-0.786 0,-1.084 -0.037,-0.298 -0.067,-0.054 -0.067,0.542 m -1.334,0.167 c 0,0.596 0.031,0.839 0.068,0.541 0.037,-0.298 0.037,-0.785 0,-1.083 -0.037,-0.298 -0.068,-0.054 -0.068,0.542 m 32.834,0 c 0,0.596 0.03,0.839 0.067,0.541 0.037,-0.298 0.037,-0.785 0,-1.083 -0.037,-0.298 -0.067,-0.054 -0.067,0.542 m -9.278,-0.375 c -0.043,0.068 0.309,0.103 0.782,0.077 1.532,-0.085 1.719,-0.152 0.494,-0.177 -0.659,-0.014 -1.234,0.031 -1.276,0.1 m 21.766,-0.004 c 0.344,0.036 0.906,0.036 1.25,0 0.344,-0.036 0.063,-0.065 -0.625,-0.065 -0.687,0 -0.969,0.029 -0.625,0.065 m 11.533,0.06 c -0.062,0.1 -0.024,0.268 0.083,0.375 0.149,0.148 0.17,0.126 0.087,-0.09 -0.094,-0.249 0.044,-0.292 1.115,-0.342 l 1.224,-0.058 -1.199,-0.033 c -0.718,-0.02 -1.243,0.039 -1.31,0.148 m 5.592,0.458 c 0,0.106 -0.206,0.204 -0.458,0.217 -0.421,0.021 -0.426,0.029 -0.064,0.097 0.405,0.077 0.839,-0.192 0.636,-0.395 -0.063,-0.063 -0.114,-0.026 -0.114,0.081 m 16.232,1.097 c -0.049,0.129 -0.063,0.448 -0.03,0.708 0.049,0.385 0.075,0.342 0.142,-0.236 0.084,-0.729 0.047,-0.886 -0.112,-0.472"
       stroke="none"
       fill="#9bc689"
       fill-rule="evenodd" />
    <path
       id="path3"
       d="m 201.458,24.284 c 0.207,0.04 0.544,0.04 0.75,0 0.207,-0.039 0.038,-0.072 -0.375,-0.072 -0.412,0 -0.581,0.033 -0.375,0.072 m -24.724,9.383 c 0,1.42 0.025,2.002 0.057,1.291 0.031,-0.71 0.031,-1.873 0,-2.583 -0.032,-0.71 -0.057,-0.129 -0.057,1.292 m 42.6,-1.251 c -0.215,0.229 -0.359,0.444 -0.321,0.478 0.039,0.034 0.245,-0.153 0.458,-0.416 0.477,-0.588 0.393,-0.626 -0.137,-0.062 m 3.906,5.501 c 0,2.475 0.023,3.51 0.051,2.301 0.029,-1.209 0.029,-3.234 0,-4.5 -0.028,-1.266 -0.051,-0.276 -0.051,2.199 m -4.507,-1 c 0.001,1.375 0.026,1.915 0.058,1.2 0.031,-0.714 0.031,-1.839 -0.001,-2.5 -0.031,-0.66 -0.057,-0.075 -0.057,1.3 m -23.566,2.968 c 0,0.029 0.243,0.273 0.541,0.542 l 0.542,0.49 -0.49,-0.542 c -0.456,-0.505 -0.593,-0.618 -0.593,-0.49 m 1.077,9.615 c 0,4.721 0.021,6.652 0.048,4.292 0.026,-2.361 0.026,-6.223 0,-8.584 -0.027,-2.36 -0.048,-0.429 -0.048,4.292 m 7.795,-7.333 c 0,0.32 0.034,0.452 0.076,0.291 0.042,-0.16 0.042,-0.423 0,-0.583 -0.042,-0.16 -0.076,-0.029 -0.076,0.292 m -12.494,2.5 c 0,0.412 0.033,0.581 0.073,0.375 0.039,-0.207 0.039,-0.544 0,-0.75 -0.04,-0.207 -0.073,-0.038 -0.073,0.375 m 12.353,1.666 c 0,1.146 0.026,1.615 0.059,1.042 0.032,-0.573 0.032,-1.51 0,-2.083 -0.033,-0.573 -0.059,-0.104 -0.059,1.041 m 19.154,0.417 c 0.001,0.55 0.032,0.755 0.069,0.455 0.037,-0.299 0.036,-0.749 -0.002,-1 -0.038,-0.25 -0.068,-0.005 -0.067,0.545 m -4.316,2.667 c 0,1.65 0.025,2.302 0.055,1.45 0.03,-0.853 0.03,-2.203 0,-3 -0.031,-0.798 -0.056,-0.1 -0.055,1.55 M 176.714,48.75 c 0.002,0.458 0.034,0.626 0.072,0.373 0.039,-0.254 0.038,-0.629 -0.002,-0.834 -0.04,-0.205 -0.071,0.003 -0.07,0.461 m 14.838,7.667 c 0.001,0.55 0.032,0.755 0.069,0.455 0.037,-0.3 0.036,-0.75 -0.002,-1 -0.038,-0.25 -0.068,-0.005 -0.067,0.545 m 12.34,1.833 c 0,0.825 0.028,1.184 0.063,0.797 0.035,-0.387 0.035,-1.062 10e-4,-1.5 -0.034,-0.438 -0.063,-0.122 -0.064,0.703 m -48.225,19.702 c 0.137,0.051 0.4,0.162 0.583,0.246 0.328,0.151 0.328,0.15 0.01,-0.105 -0.178,-0.143 -0.441,-0.254 -0.584,-0.247 -0.224,0.012 -0.225,0.026 -0.009,0.106 m 6.346,0.313 c -0.282,0.237 -0.508,0.556 -0.502,0.708 0.008,0.214 0.041,0.2 0.148,-0.062 0.178,-0.441 0.54,-0.734 1.122,-0.908 0.389,-0.117 0.407,-0.143 0.107,-0.155 -0.199,-0.008 -0.593,0.18 -0.875,0.417 m 60.26,-0.191 c 0.287,0.125 0.759,0.572 1.049,0.993 0.29,0.422 0.565,0.766 0.611,0.766 0.046,0 -0.147,-0.334 -0.428,-0.742 -0.555,-0.807 -1.1,-1.261 -1.5,-1.251 -0.14,0.003 -0.02,0.109 0.268,0.234 m 7.557,-0.055 c 0.227,0.091 0.531,0.255 0.675,0.365 0.144,0.11 0.085,0.031 -0.131,-0.176 -0.216,-0.206 -0.52,-0.37 -0.675,-0.364 -0.188,0.007 -0.144,0.066 0.131,0.175 m -22.414,0.315 c -0.426,0.471 -0.245,0.515 0.203,0.049 0.203,-0.21 0.308,-0.383 0.234,-0.383 -0.074,0 -0.271,0.15 -0.437,0.334 m 1.709,-0.015 c 0.206,0.198 0.375,0.483 0.375,0.632 0,0.149 0.044,0.227 0.099,0.173 0.182,-0.183 -0.119,-0.79 -0.485,-0.978 -0.363,-0.187 -0.363,-0.186 0.011,0.173 m 11.957,0.015 c -0.426,0.471 -0.244,0.515 0.204,0.049 0.203,-0.21 0.308,-0.383 0.234,-0.383 -0.074,0 -0.271,0.15 -0.438,0.334 m 7.085,0.833 c -0.196,0.275 -0.319,0.5 -0.273,0.5 0.046,0 0.244,-0.225 0.439,-0.5 0.196,-0.275 0.319,-0.5 0.273,-0.5 -0.046,0 -0.244,0.225 -0.439,0.5 m -73.963,4.862 -0.037,5.112 0.431,0.513 c 0.35,0.416 0.547,0.507 1.042,0.485 l 0.61,-0.028 -0.607,-0.065 c -1.218,-0.129 -1.216,-0.118 -1.314,-5.938 l -0.088,-5.191 -0.037,5.112 m 52.833,0.087 c -0.037,5.188 -0.036,5.2 0.338,5.591 0.206,0.216 0.262,0.25 0.125,0.076 -0.206,-0.261 -0.266,-1.252 -0.338,-5.592 l -0.088,-5.274 -0.037,5.199 M 164.24,84 c 0,2.704 0.023,3.81 0.051,2.458 0.028,-1.352 0.028,-3.564 0,-4.916 C 164.263,80.19 164.24,81.296 164.24,84 m 56.593,-4.433 c 0,0.159 0.99,1.6 1.1,1.6 0.046,0 -0.158,-0.357 -0.452,-0.792 -0.653,-0.966 -0.648,-0.959 -0.648,-0.808 m 6,1.516 c -0.283,0.413 -0.478,0.75 -0.432,0.75 0.045,0 0.315,-0.337 0.599,-0.75 0.284,-0.412 0.479,-0.75 0.433,-0.75 -0.046,0 -0.316,0.338 -0.6,0.75 M 225,81.5 c 0.196,0.275 0.394,0.5 0.439,0.5 0.046,0 -0.077,-0.225 -0.272,-0.5 -0.196,-0.275 -0.394,-0.5 -0.44,-0.5 -0.046,0 0.077,0.225 0.273,0.5 m -56.037,-0.211 c 0.392,0.035 0.992,0.035 1.333,-0.001 0.341,-0.036 0.021,-0.065 -0.713,-0.064 -0.733,0 -1.012,0.03 -0.62,0.065 m 11.245,-0.003 c 0.252,0.038 0.665,0.038 0.917,0 0.252,-0.038 0.046,-0.069 -0.458,-0.069 -0.505,0 -0.711,0.031 -0.459,0.069 m 5.753,0.001 c 0.3,0.038 0.75,0.037 1,-0.001 0.251,-0.038 0.006,-0.069 -0.544,-0.068 -0.55,10e-4 -0.755,0.032 -0.456,0.069 m 5.977,0.012 c -0.045,0.072 0.176,0.101 0.49,0.065 0.315,-0.037 0.572,-0.096 0.572,-0.132 0,-0.126 -0.981,-0.064 -1.062,0.067 m 8.858,-0.01 c 0.392,0.035 0.992,0.035 1.333,-0.001 0.342,-0.036 0.021,-0.065 -0.712,-0.064 -0.734,0 -1.013,0.03 -0.621,0.065 m 11.331,-0.004 c 0.207,0.039 0.507,0.038 0.667,-0.004 0.159,-0.042 -0.011,-0.074 -0.377,-0.072 -0.367,0.002 -0.497,0.036 -0.29,0.076 m 21.665,0.004 c 0.389,0.035 1.027,0.035 1.416,0 0.39,-0.035 0.071,-0.064 -0.708,-0.064 -0.779,0 -1.098,0.029 -0.708,0.064 m 7.041,-0.057 c 0,0.036 0.258,0.095 0.572,0.132 0.314,0.036 0.535,0.007 0.49,-0.065 -0.081,-0.131 -1.062,-0.193 -1.062,-0.067 m -63.302,0.601 c 0.212,0.321 0.406,0.617 0.431,0.658 0.026,0.04 0.195,-0.091 0.376,-0.292 0.181,-0.201 0.202,-0.254 0.047,-0.119 -0.255,0.222 -0.331,0.193 -0.761,-0.292 l -0.477,-0.538 0.384,0.583 m -10.827,-0.074 c -0.204,0.143 -0.371,0.345 -0.371,0.449 0,0.104 0.094,0.072 0.209,-0.072 0.114,-0.144 0.358,-0.343 0.541,-0.444 0.184,-0.1 0.257,-0.184 0.162,-0.187 -0.094,-0.003 -0.338,0.112 -0.541,0.254 M 188,81.546 c 0,0.032 0.244,0.236 0.542,0.455 0.335,0.245 0.451,0.285 0.305,0.105 C 188.625,81.833 188,81.42 188,81.546 m 15.962,0.288 c 0.708,0.431 0.94,0.431 0.288,-0.001 -0.275,-0.182 -0.575,-0.331 -0.667,-0.331 -0.091,-10e-4 0.079,0.149 0.379,0.332 m 39.388,0.095 c -0.281,0.235 -0.586,0.381 -0.68,0.323 -0.093,-0.058 -0.17,-0.026 -0.17,0.071 0,0.272 0.432,0.21 0.688,-0.099 0.126,-0.151 0.454,-0.373 0.729,-0.493 0.28,-0.122 0.377,-0.221 0.221,-0.224 -0.154,-0.004 -0.508,0.186 -0.788,0.422 m -71.183,-0.216 c 0,0.032 0.243,0.236 0.541,0.454 0.336,0.246 0.452,0.286 0.306,0.106 -0.222,-0.274 -0.847,-0.687 -0.847,-0.56 m 11.794,0.402 c -0.445,0.445 -0.451,0.446 -0.83,0.131 l -0.381,-0.317 0.376,0.407 0.375,0.406 0.538,-0.538 c 0.296,-0.295 0.5,-0.537 0.454,-0.537 -0.046,0 -0.286,0.201 -0.532,0.448 m 10.462,-0.09 c -0.379,0.298 -0.483,0.319 -0.619,0.125 -0.138,-0.198 -0.153,-0.197 -0.098,0.006 0.103,0.382 0.341,0.361 0.877,-0.078 0.615,-0.503 0.472,-0.55 -0.16,-0.053 m 2.25,-0.048 c 0.106,0.217 0.158,0.571 0.117,0.787 -0.041,0.216 -0.011,0.353 0.067,0.304 0.231,-0.142 0.164,-0.811 -0.116,-1.161 -0.247,-0.308 -0.25,-0.304 -0.068,0.07 m 1.588,0.011 c -0.16,0.176 -0.255,0.457 -0.212,0.625 0.073,0.281 0.08,0.28 0.098,-0.017 0.011,-0.176 0.144,-0.457 0.295,-0.625 0.152,-0.167 0.239,-0.304 0.193,-0.304 -0.046,0 -0.214,0.144 -0.374,0.321 m 11.923,0.11 c -0.312,0.221 -0.456,0.402 -0.321,0.402 0.135,0 0.422,-0.187 0.637,-0.417 0.478,-0.509 0.417,-0.506 -0.316,0.015 m 3.983,-0.379 c 0,0.029 0.243,0.272 0.541,0.541 l 0.542,0.49 -0.49,-0.542 c -0.456,-0.505 -0.593,-0.618 -0.593,-0.489 m -22.929,4.031 c 0,2.017 0.024,2.819 0.053,1.782 0.029,-1.036 0.029,-2.686 0,-3.666 -0.029,-0.981 -0.053,-0.133 -0.053,1.884 M 228.5,82.917 c -0.284,0.412 -0.479,0.75 -0.433,0.75 0.046,0 0.316,-0.338 0.6,-0.75 0.283,-0.413 0.478,-0.75 0.432,-0.75 -0.045,0 -0.315,0.337 -0.599,0.75 M 223,82.833 c 0.196,0.275 0.394,0.5 0.439,0.5 0.046,0 -0.077,-0.225 -0.272,-0.5 -0.196,-0.275 -0.394,-0.5 -0.44,-0.5 -0.046,0 0.077,0.225 0.273,0.5 m 22.465,0.131 -0.285,0.619 0.327,-0.393 c 0.179,-0.217 0.326,-0.498 0.326,-0.625 0,-0.343 -0.054,-0.284 -0.368,0.399 m -56.33,-0.214 c 0.084,0.183 0.195,0.446 0.246,0.583 0.08,0.216 0.094,0.215 0.106,-0.009 0.007,-0.143 -0.104,-0.406 -0.246,-0.584 -0.255,-0.318 -0.257,-0.318 -0.106,0.01 m -19.083,0.753 c 0.258,0.077 0.562,0.202 0.675,0.277 0.113,0.075 0.062,0.005 -0.113,-0.155 -0.175,-0.16 -0.478,-0.285 -0.674,-0.277 -0.289,0.011 -0.268,0.041 0.112,0.155 M 180,83.452 c 0.137,0.051 0.4,0.162 0.583,0.246 0.328,0.151 0.328,0.15 0.01,-0.105 -0.178,-0.143 -0.44,-0.254 -0.583,-0.247 -0.225,0.012 -0.226,0.026 -0.01,0.106 m 6.606,0.465 c 0.386,0.658 0.394,0.668 0.394,0.463 0,-0.097 -0.154,-0.353 -0.343,-0.57 l -0.343,-0.393 0.292,0.5 m 23.854,-0.071 c -0.159,0.092 -0.37,0.334 -0.469,0.536 l -0.18,0.368 0.303,-0.353 c 0.166,-0.195 0.453,-0.436 0.636,-0.537 0.183,-0.101 0.258,-0.183 0.167,-0.183 -0.092,0 -0.297,0.076 -0.457,0.169 m -36.793,2.798 c 0,2.422 -0.03,2.685 -0.35,3.125 l -0.35,0.481 0.433,-0.468 c 0.404,-0.435 0.727,-5.782 0.35,-5.782 -0.046,0 -0.083,1.19 -0.083,2.644 m 29.153,-2.019 c 0.08,0.575 0.091,0.587 0.146,0.146 0.033,-0.263 -0.006,-0.544 -0.086,-0.624 -0.084,-0.084 -0.109,0.12 -0.06,0.478 m 40.192,-0.186 c -0.19,0.242 -0.343,0.523 -0.34,0.625 0.003,0.102 0.088,0.036 0.19,-0.147 0.101,-0.184 0.298,-0.465 0.437,-0.625 0.139,-0.161 0.209,-0.292 0.156,-0.292 -0.054,0 -0.253,0.198 -0.443,0.439 m -48.919,0.265 c -0.143,0.203 -0.253,0.522 -0.245,0.708 0.01,0.253 0.05,0.22 0.155,-0.131 0.077,-0.258 0.23,-0.577 0.339,-0.708 0.109,-0.132 0.156,-0.24 0.105,-0.24 -0.052,0 -0.212,0.167 -0.354,0.371 m 33.166,0 c -0.207,0.296 -0.252,0.807 -0.227,2.541 l 0.033,2.172 0.092,-2.267 c 0.064,-1.56 0.164,-2.353 0.322,-2.542 0.126,-0.151 0.186,-0.275 0.134,-0.275 -0.052,0 -0.211,0.167 -0.354,0.371 m 11.307,1.963 c 0,1.329 0.026,1.873 0.058,1.208 0.031,-0.665 0.031,-1.752 0,-2.417 -0.032,-0.664 -0.058,-0.121 -0.058,1.209 m -33,0.083 c 0,1.283 0.026,1.786 0.058,1.118 0.032,-0.669 0.031,-1.719 -0.001,-2.334 -0.032,-0.614 -0.058,-0.067 -0.057,1.216 m -36.939,-1.965 c 0.207,0.039 0.507,0.038 0.667,-0.004 0.159,-0.042 -0.011,-0.074 -0.377,-0.072 -0.367,0.002 -0.497,0.036 -0.29,0.076 m 9.272,2.132 c 0,1.283 0.027,1.786 0.058,1.117 0.032,-0.668 0.032,-1.718 0,-2.333 -0.032,-0.615 -0.058,-0.068 -0.058,1.216 m 22.395,-2.132 c 0.207,0.039 0.507,0.038 0.666,-0.004 0.16,-0.042 -0.01,-0.074 -0.377,-0.072 -0.366,0.002 -0.497,0.036 -0.289,0.076 m 33.166,0 c 0.208,0.039 0.508,0.038 0.667,-0.004 0.159,-0.042 -0.01,-0.074 -0.377,-0.072 -0.367,0.002 -0.497,0.036 -0.29,0.076 m -52.228,2.298 c 0.001,1.284 0.027,1.787 0.059,1.118 0.031,-0.669 0.031,-1.719 -0.001,-2.333 -0.032,-0.615 -0.058,-0.068 -0.058,1.215 m 5.834,0 c 0,1.284 0.026,1.787 0.058,1.118 0.032,-0.669 0.031,-1.719 -0.001,-2.333 -0.032,-0.615 -0.058,-0.068 -0.057,1.215 M 198.75,85.14 c -0.275,0.168 -0.61,0.449 -0.745,0.625 -0.187,0.243 -0.147,0.231 0.168,-0.048 0.227,-0.201 0.675,-0.479 0.995,-0.618 0.32,-0.139 0.469,-0.255 0.332,-0.259 -0.138,-0.003 -0.475,0.132 -0.75,0.3 m -41.641,-0.015 c -0.042,0.069 0.921,0.125 2.141,0.125 1.22,0 2.183,-0.056 2.141,-0.125 C 161.348,85.056 160.385,85 159.25,85 c -1.135,0 -2.098,0.056 -2.141,0.125 m 26.623,2.042 c 0,1.237 0.026,1.743 0.058,1.125 0.032,-0.619 0.032,-1.632 0,-2.25 -0.032,-0.619 -0.058,-0.113 -0.058,1.125 m 29.333,0.083 c 0,1.192 0.027,1.657 0.059,1.035 0.032,-0.623 0.032,-1.598 -0.001,-2.167 -0.032,-0.569 -0.059,-0.06 -0.058,1.132 m 11.497,0 c 10e-4,1.008 0.028,1.399 0.061,0.869 0.034,-0.531 0.033,-1.356 0,-1.833 -0.034,-0.478 -0.061,-0.044 -0.061,0.964 m 18.002,0.167 c 0,1.1 0.027,1.528 0.06,0.951 0.032,-0.576 0.032,-1.476 -0.001,-2 -0.033,-0.523 -0.06,-0.051 -0.059,1.049 m -41.356,-1.135 c 0.161,0.041 0.423,0.041 0.584,0 0.16,-0.042 0.029,-0.077 -0.292,-0.077 -0.321,0 -0.452,0.035 -0.292,0.077 m 33,0 c 0.161,0.041 0.423,0.041 0.584,0 0.16,-0.042 0.029,-0.077 -0.292,-0.077 -0.321,0 -0.452,0.035 -0.292,0.077 m -33.959,0.386 c -0.426,0.47 -0.245,0.514 0.203,0.049 0.203,-0.211 0.309,-0.384 0.235,-0.384 -0.075,0 -0.272,0.151 -0.438,0.335 m -31.92,0.174 c -0.101,0.188 -0.16,0.455 -0.131,0.594 0.029,0.138 0.135,-0.015 0.235,-0.342 0.207,-0.668 0.168,-0.761 -0.104,-0.252 m 2.593,-0.204 c 0.063,0.122 0.174,0.422 0.248,0.667 0.108,0.357 0.138,0.377 0.149,0.102 0.008,-0.189 -0.104,-0.489 -0.248,-0.667 -0.144,-0.178 -0.211,-0.224 -0.149,-0.102 m 62.101,0.725 c -0.027,0.518 0.65,1.146 1.208,1.122 0.255,-0.011 0.209,-0.057 -0.168,-0.166 -0.61,-0.177 -0.836,-0.413 -0.941,-0.986 l -0.077,-0.416 -0.022,0.446 m 2.852,0.345 c -0.179,0.49 -0.175,0.511 0.047,0.218 0.212,-0.279 0.337,-0.759 0.198,-0.759 -0.026,0 -0.136,0.243 -0.245,0.541 m -35.862,-0.192 c -0.007,0.146 0.156,0.409 0.362,0.583 0.372,0.315 0.373,0.315 0.105,-0.016 -0.148,-0.183 -0.311,-0.445 -0.362,-0.583 -0.078,-0.212 -0.094,-0.21 -0.105,0.016 M 165.674,88.1 c -0.009,0.449 0.621,1.375 1.159,1.703 0.288,0.175 0.247,0.103 -0.133,-0.233 -0.302,-0.268 -0.655,-0.787 -0.784,-1.153 -0.146,-0.414 -0.237,-0.534 -0.242,-0.317 m 3.045,0.108 c 0.175,0.161 0.478,0.286 0.674,0.278 0.29,-0.012 0.268,-0.041 -0.112,-0.155 -0.258,-0.078 -0.561,-0.203 -0.675,-0.278 -0.113,-0.075 -0.062,-0.005 0.113,0.155 m 1.781,-0.021 c -0.321,0.172 -0.46,0.313 -0.31,0.313 0.15,0 0.45,-0.148 0.667,-0.328 0.476,-0.397 0.406,-0.394 -0.357,0.015 m 27.011,0.19 c -0.006,0.162 0.233,0.541 0.531,0.841 0.298,0.301 0.377,0.356 0.176,0.123 -0.201,-0.233 -0.44,-0.612 -0.531,-0.841 -0.118,-0.295 -0.169,-0.331 -0.176,-0.123 m 3.614,0.074 c 0.206,0.04 0.544,0.04 0.75,0 0.206,-0.04 0.037,-0.072 -0.375,-0.072 -0.412,0 -0.581,0.032 -0.375,0.072 m -44.279,0.703 c -0.007,0.13 -0.141,0.392 -0.298,0.583 -0.269,0.327 -0.263,0.326 0.103,-0.011 0.214,-0.197 0.348,-0.46 0.299,-0.584 -0.073,-0.182 -0.093,-0.18 -0.104,0.012 m 32.529,0.388 c -0.179,0.489 -0.175,0.51 0.047,0.218 0.212,-0.28 0.337,-0.76 0.198,-0.76 -0.026,0 -0.136,0.244 -0.245,0.542 m 4.305,-0.334 c -0.007,0.161 -0.163,0.442 -0.347,0.625 -0.183,0.184 -0.26,0.334 -0.17,0.334 0.244,0 0.714,-0.792 0.616,-1.037 -0.054,-0.134 -0.091,-0.105 -0.099,0.078 m 21.833,0 c -0.007,0.161 -0.163,0.442 -0.346,0.625 -0.184,0.184 -0.26,0.334 -0.171,0.334 0.244,0 0.715,-0.792 0.616,-1.037 -0.054,-0.134 -0.091,-0.105 -0.099,0.078 m -45.096,0.459 c -0.275,0.182 -0.441,0.331 -0.369,0.332 0.072,0.001 0.318,-0.122 0.547,-0.272 0.395,-0.259 0.438,-0.254 0.797,0.083 0.209,0.196 0.437,0.357 0.507,0.357 0.069,0 -0.096,-0.188 -0.369,-0.417 -0.591,-0.498 -0.498,-0.491 -1.113,-0.083 m 31.75,0.017 -0.417,0.344 0.537,-0.297 c 0.531,-0.294 0.543,-0.292 1,0.111 l 0.463,0.408 -0.404,-0.458 c -0.481,-0.546 -0.631,-0.56 -1.179,-0.108 m 33.514,-0.309 c 0.038,0.023 0.294,0.229 0.569,0.458 l 0.5,0.417 -0.404,-0.458 c -0.222,-0.252 -0.479,-0.459 -0.569,-0.459 -0.091,0 -0.135,0.019 -0.096,0.042 m -30.632,0.476 c -0.102,0.102 -0.435,0.244 -0.742,0.316 -0.499,0.118 -0.511,0.134 -0.117,0.149 0.35,0.014 1.473,-0.623 1.135,-0.644 -0.05,-0.003 -0.175,0.078 -0.276,0.179 m -42.507,0.264 c 0.16,0.042 0.423,0.042 0.583,0 0.16,-0.042 0.029,-0.076 -0.292,-0.076 -0.321,0 -0.452,0.034 -0.291,0.076 m 5.752,0.17 c 0.207,0.039 0.507,0.038 0.666,-0.004 0.16,-0.042 -0.01,-0.074 -0.377,-0.072 -0.366,0.002 -0.497,0.036 -0.289,0.076 m 31.833,0 c 0.207,0.039 0.507,0.038 0.667,-0.004 0.159,-0.042 -0.011,-0.074 -0.377,-0.072 -0.367,0.002 -0.497,0.036 -0.29,0.076 m 32.831,-10e-4 c 0.207,0.04 0.544,0.04 0.75,0 0.207,-0.039 0.038,-0.072 -0.375,-0.072 -0.412,0 -0.581,0.033 -0.375,0.072 m -74.777,5.258 c 0.038,0.023 0.294,0.229 0.569,0.458 l 0.5,0.417 -0.404,-0.459 c -0.222,-0.252 -0.479,-0.458 -0.569,-0.458 -0.091,0 -0.135,0.019 -0.096,0.042 m 65.964,0.235 c -0.208,0.252 -0.196,0.257 0.133,0.051 0.306,-0.19 0.409,-0.188 0.667,0.015 0.279,0.22 0.286,0.216 0.076,-0.051 -0.287,-0.366 -0.581,-0.371 -0.876,-0.015 m 5,0.5 c -0.209,0.253 -0.196,0.257 0.157,0.041 0.345,-0.21 0.41,-0.201 0.625,0.089 0.132,0.178 0.24,0.249 0.24,0.158 0,-0.519 -0.674,-0.709 -1.022,-0.288 m -14.912,2.306 c 0.001,1.375 0.026,1.916 0.058,1.201 0.031,-0.715 0.031,-1.84 -0.001,-2.5 -0.031,-0.66 -0.057,-0.076 -0.057,1.299 m -54.755,-1.652 c 0.57,0.864 0.761,0.953 1.122,0.527 l 0.317,-0.375 -0.354,0.298 c -0.346,0.292 -0.365,0.285 -0.889,-0.333 -0.41,-0.483 -0.456,-0.511 -0.196,-0.117 m 40.708,-0.148 c -0.011,0.202 -0.151,0.444 -0.311,0.537 -0.16,0.093 -0.207,0.172 -0.104,0.175 0.297,0.008 0.597,-0.45 0.512,-0.779 -0.062,-0.24 -0.081,-0.227 -0.097,0.067 m 28.66,0.037 c -0.007,0.13 -0.141,0.393 -0.298,0.584 -0.269,0.326 -0.263,0.326 0.103,-0.012 0.214,-0.196 0.348,-0.459 0.299,-0.583 -0.073,-0.183 -0.093,-0.181 -0.104,0.011 m -64.052,0.465 c 0.207,0.039 0.507,0.038 0.666,-0.004 0.16,-0.042 -0.01,-0.074 -0.377,-0.072 -0.366,0.002 -0.497,0.036 -0.289,0.076 m 3.998,0.054 c 0.206,0.082 0.375,0.24 0.375,0.35 0,0.11 0.048,0.152 0.107,0.093 0.162,-0.163 -0.278,-0.617 -0.586,-0.605 -0.184,0.007 -0.15,0.06 0.104,0.162 m 3,0 c 0.342,0.137 0.378,0.271 0.408,1.531 l 0.034,1.38 0.057,-1.307 c 0.059,-1.355 -0.088,-1.786 -0.603,-1.766 -0.184,0.007 -0.15,0.06 0.104,0.162 m 1.575,0.028 c -0.223,0.222 -0.291,3.89 -0.075,4.024 0.068,0.043 0.101,-0.816 0.073,-1.908 -0.05,-1.942 -0.043,-1.99 0.334,-2.141 0.229,-0.092 0.28,-0.158 0.126,-0.165 -0.142,-0.006 -0.348,0.08 -0.458,0.19 m 5.278,0.076 c -0.208,0.253 -0.196,0.257 0.137,0.05 0.32,-0.2 0.409,-0.189 0.713,0.085 0.275,0.249 0.388,0.272 0.551,0.108 0.161,-0.163 0.149,-0.185 -0.061,-0.105 -0.146,0.055 -0.361,-0.015 -0.479,-0.157 -0.276,-0.333 -0.575,-0.327 -0.861,0.019 m 4.897,-0.161 c 0.16,0.041 0.423,0.041 0.583,0 0.16,-0.042 0.029,-0.077 -0.292,-0.077 -0.321,0 -0.452,0.035 -0.291,0.077 m 3.27,0.161 c -0.209,0.253 -0.197,0.257 0.137,0.05 0.32,-0.2 0.409,-0.189 0.712,0.085 0.275,0.249 0.389,0.272 0.551,0.108 0.162,-0.163 0.149,-0.185 -0.06,-0.105 -0.146,0.055 -0.361,-0.015 -0.479,-0.157 -0.277,-0.333 -0.575,-0.327 -0.861,0.019 m 5.063,-0.161 c 0.16,0.041 0.423,0.041 0.583,0 0.161,-0.042 0.029,-0.077 -0.291,-0.077 -0.321,0 -0.452,0.035 -0.292,0.077 m 4.752,0.003 c 0.207,0.039 0.507,0.038 0.667,-0.004 0.159,-0.042 -0.011,-0.074 -0.377,-0.072 -0.367,0.002 -0.497,0.036 -0.29,0.076 m 8.167,0 c 0.207,0.039 0.507,0.038 0.666,-0.004 0.16,-0.042 -0.01,-0.074 -0.377,-0.072 -0.366,0.002 -0.497,0.036 -0.289,0.076 m 6.706,0.053 c 0.412,0.07 0.938,0.176 1.167,0.237 0.262,0.069 0.208,0.014 -0.144,-0.149 -0.309,-0.143 -0.834,-0.249 -1.167,-0.237 -0.597,0.022 -0.595,0.024 0.144,0.149 m 5.375,-0.056 c 0.16,0.041 0.423,0.041 0.583,0 0.161,-0.042 0.029,-0.077 -0.291,-0.077 -0.321,0 -0.452,0.035 -0.292,0.077 m 3.699,0.147 c -0.178,0.144 -0.212,0.203 -0.074,0.129 0.137,-0.073 0.588,-0.181 1,-0.24 l 0.75,-0.107 -0.676,-0.022 c -0.398,-0.013 -0.81,0.086 -1,0.24 m 5.627,0.488 c -0.737,0.837 -0.811,0.874 -0.919,0.458 -0.058,-0.219 -0.081,-0.199 -0.096,0.083 -0.03,0.584 0.351,0.446 1.037,-0.375 0.696,-0.833 1.046,-0.936 1.272,-0.375 0.092,0.23 0.155,0.275 0.161,0.117 0.013,-0.305 -0.305,-0.658 -0.592,-0.658 -0.111,0 -0.499,0.337 -0.863,0.75 m 7.426,-0.632 c 0.207,0.039 0.507,0.038 0.667,-0.004 0.159,-0.042 -0.011,-0.074 -0.377,-0.072 -0.367,0.002 -0.497,0.036 -0.29,0.076 m 5.748,-0.003 c 0.16,0.041 0.423,0.041 0.583,0 0.161,-0.042 0.029,-0.077 -0.291,-0.077 -0.321,0 -0.452,0.035 -0.292,0.077 m -65.063,0.25 c 0.174,0.231 0.288,0.249 0.618,0.098 0.223,-0.101 0.373,-0.216 0.335,-0.254 -0.038,-0.038 -0.215,0.008 -0.392,0.103 -0.23,0.123 -0.386,0.115 -0.548,-0.028 -0.188,-0.168 -0.19,-0.154 -0.013,0.081 m 1.35,-0.089 c 0.094,0.047 0.171,0.222 0.171,0.39 0,0.168 -0.077,0.344 -0.171,0.391 -0.093,0.046 -0.075,0.065 0.042,0.041 0.117,-0.023 0.213,-0.218 0.213,-0.432 0,-0.214 -0.096,-0.408 -0.213,-0.432 -0.117,-0.023 -0.135,-0.005 -0.042,0.042 m 5.326,0.099 c 0.182,0.241 0.182,0.342 0,0.583 -0.209,0.278 -0.205,0.278 0.099,0 0.313,-0.287 0.313,-0.296 0,-0.583 -0.304,-0.278 -0.308,-0.278 -0.099,0 m 22.715,0.051 c -1.047,0.734 -1.174,2.265 -0.265,3.201 l 0.604,0.623 -0.521,-0.631 c -0.848,-1.026 -0.629,-2.612 0.439,-3.192 0.251,-0.136 0.38,-0.25 0.285,-0.254 -0.094,-0.004 -0.338,0.11 -0.542,0.253 m 2.686,0.285 c 0.29,0.3 0.56,0.524 0.599,0.498 0.095,-0.062 -0.85,-1.043 -1.005,-1.043 -0.067,0 0.116,0.245 0.406,0.545 m 11.816,-0.285 c 0.25,0.136 0.566,0.452 0.702,0.702 0.135,0.25 0.249,0.355 0.253,0.234 0.009,-0.287 -0.902,-1.198 -1.189,-1.189 -0.121,0.004 -0.016,0.118 0.234,0.253 m 12.578,0.067 c 0.06,0.227 0.007,0.438 -0.134,0.536 -0.193,0.135 -0.19,0.151 0.018,0.095 0.308,-0.084 0.426,-0.598 0.191,-0.833 -0.119,-0.119 -0.142,-0.057 -0.075,0.202 m 1.676,0.048 c -0.215,0.207 -0.276,0.292 -0.134,0.19 0.142,-0.101 0.408,-0.268 0.592,-0.37 0.183,-0.101 0.243,-0.187 0.134,-0.19 -0.11,-0.002 -0.376,0.164 -0.592,0.37 m 2.458,-0.18 c 0.183,0.102 0.449,0.269 0.591,0.37 0.142,0.102 0.082,0.017 -0.134,-0.19 -0.216,-0.206 -0.482,-0.372 -0.592,-0.37 -0.109,0.003 -0.049,0.089 0.135,0.19 m 5.43,-0.153 c 0.038,0.023 0.295,0.229 0.57,0.458 l 0.5,0.417 -0.404,-0.458 c -0.223,-0.252 -0.479,-0.459 -0.57,-0.459 -0.091,0 -0.134,0.019 -0.096,0.042 m -73.752,0.641 c 0.269,0.329 0.522,0.571 0.563,0.536 0.041,-0.034 -0.178,-0.304 -0.488,-0.599 l -0.562,-0.536 0.487,0.599 m 15.572,-0.1 c -0.215,0.229 -0.359,0.444 -0.32,0.478 0.038,0.034 0.244,-0.153 0.457,-0.416 0.478,-0.588 0.393,-0.626 -0.137,-0.062 m 33.264,0.097 c -0.237,0.282 -0.429,0.601 -0.426,0.708 0.003,0.108 0.088,0.046 0.189,-0.138 0.102,-0.183 0.338,-0.502 0.524,-0.708 0.187,-0.206 0.296,-0.375 0.243,-0.375 -0.054,0 -0.292,0.231 -0.53,0.513 m -44.398,0.767 c -0.044,1.617 -0.774,2.301 -1.44,1.35 -0.143,-0.204 -0.26,-0.291 -0.26,-0.193 0,0.372 0.645,0.771 1.072,0.664 0.605,-0.152 0.784,-0.625 0.719,-1.896 l -0.059,-1.122 -0.032,1.197 M 199.5,97.795 c 0,0.084 0.15,0.289 0.333,0.455 0.261,0.236 0.341,0.54 0.366,1.401 l 0.032,1.099 0.059,-1.05 c 0.053,-0.929 0.011,-1.107 -0.365,-1.554 -0.234,-0.278 -0.425,-0.436 -0.425,-0.351 m 20.437,0.128 c -0.057,0.149 -0.095,0.471 -0.085,0.716 0.015,0.333 0.052,0.277 0.15,-0.222 0.138,-0.709 0.107,-0.942 -0.065,-0.494 m 16.963,2.244 c 0,1.329 0.025,1.873 0.057,1.208 0.032,-0.665 0.032,-1.752 0,-2.417 -0.032,-0.664 -0.057,-0.121 -0.057,1.209 m -68.848,-1.25 c 0.001,0.55 0.032,0.755 0.069,0.455 0.037,-0.3 0.036,-0.75 -0.002,-1 -0.038,-0.25 -0.068,-0.005 -0.067,0.545 M 198.675,98 c -0.002,0.046 0.105,0.383 0.237,0.75 0.132,0.367 0.241,0.517 0.241,0.333 0.002,-0.277 -0.467,-1.339 -0.478,-1.083 m 22.362,0.196 c -0.214,0.215 0.017,0.637 0.349,0.637 0.098,0 0.032,-0.107 -0.146,-0.238 -0.267,-0.196 -0.28,-0.252 -0.073,-0.32 0.137,-0.045 0.362,-0.119 0.5,-0.165 0.168,-0.057 0.139,-0.088 -0.092,-0.097 -0.188,-0.007 -0.43,0.075 -0.538,0.183 m -61.764,0.387 c 0.385,0.658 0.394,0.668 0.394,0.463 0,-0.097 -0.155,-0.353 -0.344,-0.569 l -0.343,-0.394 0.293,0.5 m 25.061,-0.217 c 0.297,0.359 0.178,0.467 -0.542,0.495 l -0.709,0.028 0.647,0.067 c 0.788,0.081 1.134,-0.179 0.722,-0.541 -0.156,-0.137 -0.209,-0.159 -0.118,-0.049 m 3.761,0.122 c -0.16,0.176 -0.256,0.457 -0.212,0.625 0.068,0.265 0.081,0.26 0.098,-0.038 0.038,-0.677 0.838,-0.993 1.353,-0.533 0.198,0.177 0.2,0.164 0.013,-0.084 -0.292,-0.384 -0.89,-0.371 -1.252,0.03 m 16.232,-0.064 c -0.314,0.379 0.012,0.608 0.776,0.546 0.642,-0.053 0.98,-0.625 0.434,-0.735 -0.116,-0.024 -0.135,-0.005 -0.041,0.041 0.444,0.221 0.145,0.557 -0.496,0.557 -0.689,0 -0.811,-0.122 -0.467,-0.466 0.11,-0.11 0.157,-0.2 0.104,-0.2 -0.053,0 -0.192,0.115 -0.31,0.257 m 13.34,-0.058 c 0.303,0.365 0.175,0.467 -0.625,0.496 l -0.792,0.03 0.731,0.064 c 0.864,0.077 1.229,-0.168 0.804,-0.541 -0.156,-0.137 -0.209,-0.159 -0.118,-0.049 m 9.387,0.176 c -0.186,0.206 -0.397,0.487 -0.47,0.625 -0.141,0.265 -0.103,0.229 0.573,-0.542 0.22,-0.252 0.364,-0.458 0.318,-0.458 -0.046,0 -0.235,0.168 -0.421,0.375 m 11.347,0 c -0.315,0.372 -0.315,0.372 0.016,0.097 0.183,-0.153 0.558,-0.31 0.833,-0.35 l 0.5,-0.072 -0.516,-0.025 c -0.351,-0.017 -0.617,0.095 -0.833,0.35 m -72.664,0.12 c 0.356,0.558 0.331,1.103 -0.07,1.505 -0.184,0.183 -0.263,0.333 -0.176,0.333 0.612,0 0.839,-1.278 0.329,-1.857 l -0.347,-0.393 0.264,0.412 m 63.15,0.671 c 0,0.596 0.03,0.84 0.067,0.542 0.037,-0.298 0.037,-0.785 0,-1.083 -0.037,-0.298 -0.067,-0.055 -0.067,0.541 m 4.208,-0.738 c -0.144,0.144 -0.256,0.388 -0.249,0.542 0.011,0.228 0.03,0.234 0.106,0.03 0.05,-0.138 0.206,-0.382 0.346,-0.542 0.315,-0.363 0.154,-0.386 -0.203,-0.03 m -39.375,1.072 c 0,0.596 0.03,0.839 0.067,0.541 0.037,-0.298 0.037,-0.785 0,-1.083 -0.037,-0.298 -0.067,-0.054 -0.067,0.542 m 7.659,-0.334 c 0,0.413 0.032,0.582 0.072,0.375 0.04,-0.206 0.04,-0.543 0,-0.75 -0.04,-0.206 -0.072,-0.037 -0.072,0.375 m 5.64,-0.298 c -0.019,0.445 -0.037,0.452 -1.311,0.508 l -1.291,0.057 1.297,0.033 c 1.361,0.035 1.576,-0.079 1.403,-0.748 -0.052,-0.2 -0.085,-0.15 -0.098,0.15 m 2.526,0.298 c 0,0.413 0.033,0.582 0.073,0.375 0.039,-0.206 0.039,-0.543 0,-0.75 -0.04,-0.206 -0.073,-0.037 -0.073,0.375 m -46.836,0.084 c 0.002,0.366 0.036,0.497 0.076,0.289 0.039,-0.207 0.038,-0.507 -0.004,-0.666 -0.042,-0.16 -0.074,0.01 -0.072,0.377 m 4.5,0 c 0.002,0.366 0.036,0.497 0.076,0.289 0.039,-0.207 0.038,-0.507 -0.004,-0.666 -0.042,-0.16 -0.074,0.01 -0.072,0.377 m 22.324,0.521 c -0.027,0.959 0.023,1.232 0.259,1.417 0.255,0.2 0.267,0.197 0.091,-0.029 -0.11,-0.141 -0.226,-0.778 -0.259,-1.416 l -0.059,-1.16 -0.032,1.188 m 52.009,-0.521 c 0.002,0.366 0.036,0.497 0.076,0.289 0.04,-0.207 0.038,-0.507 -0.003,-0.666 -0.042,-0.16 -0.075,0.01 -0.073,0.377 m -61.825,0.416 c 0,0.504 0.031,0.711 0.069,0.459 0.038,-0.252 0.038,-0.665 0,-0.917 -0.038,-0.252 -0.069,-0.046 -0.069,0.458 m 6.062,-0.598 c -0.07,0.183 -0.425,0.266 -1.313,0.308 l -1.216,0.057 1.188,0.034 c 1.105,0.03 1.843,-0.242 1.523,-0.562 -0.048,-0.047 -0.13,0.026 -0.182,0.163 m -25.114,1.049 c -0.045,0.661 -0.022,1.14 0.052,1.067 0.073,-0.074 0.11,-0.615 0.081,-1.201 l -0.052,-1.067 -0.081,1.201 m 13.72,-0.201 c 0.001,0.55 0.032,0.755 0.069,0.456 0.037,-0.3 0.036,-0.75 -0.002,-1 -0.038,-0.251 -0.068,-0.006 -0.067,0.544 m 16.28,0.201 c -0.045,0.661 -0.022,1.14 0.052,1.067 0.073,-0.074 0.11,-0.615 0.081,-1.201 l -0.052,-1.067 -0.081,1.201 M 218,99.45 c -1.832,0.088 -2.261,0.34 -1.542,0.905 0.263,0.206 0.27,0.2 0.069,-0.056 -0.371,-0.474 -0.066,-0.632 1.223,-0.632 0.677,0 1.277,-0.075 1.333,-0.167 0.057,-0.092 0.08,-0.152 0.052,-0.135 -0.028,0.018 -0.539,0.056 -1.135,0.085 m -19,0.378 c 0,0.18 -0.235,0.611 -0.521,0.958 l -0.521,0.631 0.604,-0.623 c 0.507,-0.522 0.818,-1.294 0.521,-1.294 -0.046,0 -0.083,0.147 -0.083,0.328 m 33.846,-0.145 c -0.007,0.146 0.156,0.408 0.362,0.583 0.372,0.315 0.373,0.314 0.105,-0.016 -0.148,-0.183 -0.311,-0.446 -0.361,-0.583 -0.078,-0.213 -0.094,-0.21 -0.106,0.016 m -7.679,0.178 c 0,0.107 0.05,0.144 0.112,0.082 0.062,-0.062 0.306,0.057 0.542,0.264 l 0.429,0.376 -0.404,-0.458 c -0.429,-0.486 -0.679,-0.584 -0.679,-0.264 m 9.381,0.256 c -0.203,0.21 -0.309,0.383 -0.235,0.383 0.163,0 0.769,-0.648 0.672,-0.718 -0.038,-0.027 -0.234,0.124 -0.437,0.335 m -21.77,-0.048 c -0.052,0.138 -0.343,0.322 -0.645,0.409 -0.387,0.112 -0.444,0.163 -0.193,0.174 0.388,0.016 1.208,-0.558 1.039,-0.728 -0.058,-0.058 -0.148,0.008 -0.201,0.145 m -18.106,0.047 c -0.003,0.109 0.163,0.375 0.37,0.591 0.206,0.216 0.291,0.276 0.19,0.135 -0.102,-0.142 -0.269,-0.409 -0.37,-0.592 -0.102,-0.183 -0.187,-0.244 -0.19,-0.134 m 43.729,0.176 c 0.174,0.206 0.437,0.369 0.583,0.362 0.226,-0.012 0.228,-0.028 0.016,-0.106 -0.138,-0.05 -0.4,-0.213 -0.583,-0.361 -0.331,-0.268 -0.331,-0.267 -0.016,0.105 m -28.729,-0.01 c -0.003,0.11 0.163,0.376 0.37,0.592 0.206,0.216 0.291,0.276 0.19,0.134 -0.102,-0.142 -0.269,-0.408 -0.37,-0.591 -0.102,-0.184 -0.187,-0.244 -0.19,-0.135 m 31.365,0.517 -0.379,0.618 0.421,-0.468 c 0.232,-0.257 0.421,-0.538 0.421,-0.625 0,-0.245 -0.056,-0.187 -0.463,0.475 m -21.044,-0.207 c -0.178,0.214 -0.162,0.306 0.096,0.541 0.294,0.27 0.298,0.268 0.075,-0.026 -0.206,-0.272 -0.196,-0.338 0.082,-0.542 0.175,-0.127 0.238,-0.232 0.14,-0.232 -0.098,0 -0.275,0.117 -0.393,0.259 m 3.187,-0.062 c -0.007,0.153 -0.211,0.435 -0.452,0.625 -0.242,0.19 -0.368,0.345 -0.28,0.345 0.278,0 0.925,-0.8 0.833,-1.03 -0.06,-0.151 -0.092,-0.132 -0.101,0.06 m -59.644,0.512 c 0.258,0.252 0.562,0.456 0.675,0.453 0.113,-0.003 0.056,-0.088 -0.128,-0.189 -0.183,-0.102 -0.487,-0.306 -0.674,-0.454 -0.188,-0.148 -0.131,-0.062 0.127,0.19 m 3.206,-0.362 c -0.062,0.099 -0.347,0.324 -0.635,0.5 -0.288,0.175 -0.431,0.319 -0.318,0.319 0.213,0.001 1.383,-0.985 1.179,-0.994 -0.063,-0.003 -0.165,0.076 -0.226,0.175 m 18.233,-0.058 c 0.469,0.057 0.543,0.123 0.467,0.414 -0.064,0.247 -0.039,0.294 0.089,0.166 0.33,-0.33 0.016,-0.704 -0.567,-0.675 l -0.547,0.026 0.558,0.069 m 17.094,0.085 c 0.195,0.15 0.278,0.351 0.213,0.519 -0.153,0.399 -1.195,0.361 -1.615,-0.059 -0.184,-0.184 -0.334,-0.263 -0.334,-0.176 0,0.569 1.608,0.898 2.012,0.412 0.244,-0.294 0.058,-0.747 -0.357,-0.871 -0.131,-0.038 -0.095,0.04 0.081,0.175 m 3.598,-0.142 c 0,0.036 0.257,0.095 0.571,0.132 0.315,0.037 0.535,0.007 0.49,-0.065 -0.08,-0.131 -1.061,-0.192 -1.061,-0.067 m 12.641,0.057 c 0.469,0.057 0.544,0.123 0.468,0.414 -0.065,0.247 -0.039,0.294 0.089,0.166 0.329,-0.33 0.015,-0.704 -0.568,-0.675 l -0.547,0.026 0.558,0.069 m 9.15,0.236 c 0.062,0.236 -0.011,0.435 -0.214,0.584 -0.169,0.123 -0.233,0.225 -0.143,0.225 0.44,0 0.769,-0.855 0.415,-1.074 -0.084,-0.051 -0.109,0.068 -0.058,0.265 m 3.528,0.142 c -0.061,0.366 -0.153,0.417 -0.762,0.417 -0.381,0 -0.658,0.056 -0.615,0.125 0.316,0.509 1.651,-0.072 1.516,-0.659 -0.052,-0.228 -0.085,-0.2 -0.139,0.117 m -60.56,0.255 c -0.177,0.135 -0.249,0.245 -0.158,0.245 0.091,0 0.247,-0.082 0.348,-0.182 0.131,-0.132 0.303,-0.103 0.621,0.106 0.242,0.158 0.481,0.247 0.531,0.197 0.05,-0.05 -0.065,-0.14 -0.255,-0.2 -0.191,-0.061 -0.346,-0.18 -0.346,-0.266 0,-0.229 -0.371,-0.179 -0.741,0.1 m 67.741,-0.116 c 0,0.076 0.093,0.142 0.208,0.147 0.115,0.004 0.358,0.059 0.542,0.122 0.222,0.077 0.194,0.03 -0.084,-0.141 -0.475,-0.291 -0.666,-0.328 -0.666,-0.128 m -54.459,0.476 c 0.161,0.042 0.423,0.042 0.584,0 0.16,-0.042 0.029,-0.076 -0.292,-0.076 -0.321,0 -0.452,0.034 -0.292,0.076 m 21.334,0 c 0.16,0.042 0.423,0.042 0.583,0 0.16,-0.042 0.029,-0.076 -0.292,-0.076 -0.321,0 -0.452,0.034 -0.291,0.076 m 12,0 c 0.16,0.042 0.423,0.042 0.583,0 0.16,-0.042 0.029,-0.076 -0.292,-0.076 -0.321,0 -0.452,0.034 -0.291,0.076"
       stroke="none"
       fill="#8cbc6c"
       fill-rule="evenodd" />
    <path
       id="path4"
       d="m 181.394,35.25 c 0.001,0.917 0.029,1.27 0.062,0.786 0.034,-0.484 0.034,-1.234 0,-1.667 -0.035,-0.432 -0.062,-0.036 -0.062,0.881 m -4.986,6.833 c 0,3.025 0.022,4.286 0.05,2.803 0.028,-1.484 0.028,-3.959 0,-5.5 -0.027,-1.542 -0.05,-0.328 -0.05,2.697 m 18.925,-2.364 c 0,0.029 0.244,0.272 0.542,0.541 l 0.542,0.49 -0.49,-0.542 c -0.456,-0.505 -0.594,-0.618 -0.594,-0.489 m 13.229,3.031 c 10e-4,1.008 0.028,1.399 0.061,0.869 0.034,-0.531 0.033,-1.356 0,-1.833 -0.034,-0.478 -0.061,-0.044 -0.061,0.964 m 14.819,2 c 0.001,0.458 0.034,0.626 0.072,0.373 0.038,-0.254 0.037,-0.629 -0.002,-0.834 -0.04,-0.205 -0.071,0.003 -0.07,0.461 m -19.829,5.5 c 0.001,0.55 0.032,0.755 0.069,0.455 0.037,-0.299 0.036,-0.749 -0.002,-1 -0.038,-0.25 -0.068,-0.005 -0.067,0.545 m 5.011,3.583 c 0,1.054 0.027,1.486 0.06,0.959 0.033,-0.527 0.033,-1.39 0,-1.917 -0.033,-0.527 -0.06,-0.096 -0.06,0.958 m -5.013,1.5 c 0,0.504 0.031,0.711 0.069,0.459 0.039,-0.252 0.039,-0.665 0,-0.917 -0.038,-0.252 -0.069,-0.046 -0.069,0.458 m -49.476,28.75 c 0,2.75 0.023,3.899 0.051,2.552 0.028,-1.346 0.028,-3.596 0,-5 -0.028,-1.403 -0.051,-0.302 -0.051,2.448 m 52.833,0 c 0,2.75 0.023,3.899 0.051,2.552 0.028,-1.346 0.028,-3.596 0,-5 -0.028,-1.403 -0.051,-0.302 -0.051,2.448 m -15.836,1.667 c 0,1.925 0.024,2.69 0.053,1.699 0.03,-0.99 0.03,-2.565 0,-3.5 -0.029,-0.934 -0.054,-0.124 -0.053,1.801 m 47.66,1 c 0.001,1.192 0.027,1.657 0.059,1.035 0.033,-0.623 0.032,-1.598 0,-2.167 -0.033,-0.569 -0.059,-0.06 -0.059,1.132 m -60.667,0.333 c 0,1.1 0.027,1.529 0.06,0.952 0.032,-0.576 0.032,-1.476 -0.001,-2 -0.033,-0.523 -0.06,-0.052 -0.059,1.048 m -7.179,11.667 c 0.001,0.55 0.032,0.755 0.069,0.455 0.037,-0.299 0.036,-0.749 -0.002,-1 -0.038,-0.25 -0.068,-0.005 -0.067,0.545 m 29.165,0.75 c 0,0.504 0.031,0.71 0.069,0.458 0.039,-0.252 0.039,-0.664 0,-0.916 -0.038,-0.252 -0.069,-0.046 -0.069,0.458 m -10.665,0.417 c 0.001,0.55 0.032,0.755 0.069,0.455 0.037,-0.3 0.036,-0.75 -0.002,-1 -0.038,-0.25 -0.068,-0.005 -0.067,0.545 m -14.837,0.333 c 0.001,0.458 0.033,0.626 0.072,0.373 0.038,-0.254 0.037,-0.629 -0.003,-0.834 -0.039,-0.205 -0.071,0.003 -0.069,0.461"
       stroke="none"
       fill="#b5ccb0"
       fill-rule="evenodd" />
    <path
       id="path5"
       d="m 176.387,35.667 c 0,0.595 0.03,0.839 0.067,0.541 0.037,-0.298 0.037,-0.785 0,-1.083 -0.037,-0.298 -0.067,-0.054 -0.067,0.542 m 5.003,2.416 c 0.001,0.734 0.03,1.013 0.066,0.621 0.035,-0.392 0.034,-0.992 -0.002,-1.333 -0.035,-0.342 -0.064,-0.021 -0.064,0.712 m 27.152,2.334 c 0.002,0.366 0.036,0.497 0.076,0.289 0.04,-0.207 0.038,-0.507 -0.003,-0.666 -0.042,-0.16 -0.075,0.01 -0.073,0.377 m -11.966,7.833 c 0,3.942 0.022,5.53 0.049,3.53 0.026,-2 0.026,-5.225 0,-7.166 -0.027,-1.942 -0.049,-0.306 -0.049,3.636 M 181.4,49.5 c 0,1.421 0.026,2.002 0.057,1.292 0.031,-0.711 0.031,-1.873 0,-2.584 -0.031,-0.71 -0.057,-0.129 -0.057,1.292 m 22.156,-1.333 c 0,0.687 0.029,0.968 0.065,0.625 0.036,-0.344 0.036,-0.907 0,-1.25 -0.036,-0.344 -0.065,-0.063 -0.065,0.625 m 14.834,2.583 c 0.001,0.733 0.03,1.013 0.066,0.621 0.035,-0.392 0.034,-0.992 -0.002,-1.334 -0.035,-0.341 -0.064,-0.02 -0.064,0.713 m -27.158,3.583 c 0,1.238 0.026,1.744 0.058,1.125 0.032,-0.618 0.032,-1.631 0,-2.25 -0.032,-0.618 -0.058,-0.112 -0.058,1.125 m 17.316,2.084 c 0.001,0.458 0.033,0.626 0.072,0.372 0.038,-0.253 0.037,-0.628 -0.003,-0.833 -0.039,-0.205 -0.071,0.002 -0.069,0.461 M 203.55,57 c 0,0.504 0.031,0.71 0.069,0.458 0.039,-0.252 0.039,-0.664 0,-0.916 C 203.581,56.29 203.55,56.496 203.55,57 m -39.143,27.083 c 0,2.75 0.023,3.899 0.051,2.552 0.028,-1.346 0.028,-3.596 0,-5 -0.028,-1.403 -0.051,-0.302 -0.051,2.448 m 41.326,2.584 c 0,1.329 0.026,1.873 0.057,1.208 0.032,-0.665 0.032,-1.752 0,-2.417 -0.031,-0.664 -0.057,-0.121 -0.057,1.209 m 18.665,0.5 c 0,1.146 0.026,1.614 0.059,1.041 0.032,-0.573 0.032,-1.51 0,-2.083 -0.033,-0.573 -0.059,-0.104 -0.059,1.042 m -9.997,11.416 c 0,1.467 0.026,2.045 0.056,1.284 0.031,-0.761 0.031,-1.961 0,-2.667 -0.031,-0.706 -0.056,-0.083 -0.056,1.383 m 10.986,-1.25 c 0,0.596 0.03,0.84 0.067,0.542 0.037,-0.298 0.037,-0.785 0,-1.083 -0.037,-0.298 -0.067,-0.055 -0.067,0.541 m -57.497,1.584 c 0.001,0.733 0.03,1.012 0.066,0.62 0.035,-0.392 0.034,-0.992 -0.002,-1.333 -0.035,-0.341 -0.064,-0.021 -0.064,0.713 m 68.843,1.166 c 0.001,1.375 0.026,1.916 0.058,1.201 0.031,-0.715 0.031,-1.84 -0.001,-2.5 -0.031,-0.66 -0.057,-0.076 -0.057,1.299 m -50.341,-0.666 c 0,0.825 0.028,1.183 0.063,0.796 0.035,-0.386 0.035,-1.061 10e-4,-1.5 -0.034,-0.438 -0.063,-0.121 -0.064,0.704 m 7.497,0.416 c 0,0.688 0.03,0.969 0.066,0.625 0.036,-0.343 0.036,-0.906 0,-1.25 -0.036,-0.343 -0.066,-0.062 -0.066,0.625 m 34.829,-0.25 c 0.001,0.55 0.032,0.755 0.069,0.456 0.038,-0.3 0.037,-0.75 -0.001,-1 -0.038,-0.251 -0.069,-0.006 -0.068,0.544 m -48.837,0.5 c 0.001,0.459 0.034,0.626 0.072,0.373 0.038,-0.253 0.037,-0.628 -0.002,-0.833 -0.04,-0.205 -0.071,0.002 -0.07,0.46 m 43.828,0.167 c 0.002,0.367 0.036,0.497 0.076,0.29 0.039,-0.208 0.038,-0.508 -0.004,-0.667 -0.042,-0.159 -0.074,0.01 -0.072,0.377 m 1.644,0.292 c 0.014,0.285 0.037,0.304 0.096,0.081 0.042,-0.162 0.157,-0.244 0.256,-0.183 0.107,0.066 0.132,0.033 0.061,-0.081 -0.198,-0.32 -0.434,-0.216 -0.413,0.183"
       stroke="none"
       fill="#bed6b7"
       fill-rule="evenodd" />
    <path
       id="path6"
       d="m 223.217,32.667 c 0,0.504 0.031,0.71 0.069,0.458 0.038,-0.252 0.038,-0.665 0,-0.917 -0.038,-0.252 -0.069,-0.046 -0.069,0.459 m -41.997,2.166 c 0,0.596 0.03,0.84 0.067,0.542 0.037,-0.298 0.037,-0.785 0,-1.083 -0.037,-0.298 -0.067,-0.055 -0.067,0.541 m -4.648,8.25 c 0,2.2 0.024,3.077 0.053,1.949 0.028,-1.128 0.028,-2.928 -0.001,-4 -0.029,-1.072 -0.052,-0.149 -0.052,2.051 m 31.824,0.417 c 0,1.054 0.027,1.485 0.06,0.958 0.034,-0.527 0.034,-1.389 0,-1.916 -0.033,-0.527 -0.06,-0.096 -0.06,0.958 m 14.83,0.25 c -0.001,0.825 0.028,1.184 0.062,0.797 0.035,-0.387 0.036,-1.062 10e-4,-1.5 -0.034,-0.438 -0.063,-0.122 -0.063,0.703 m -31.681,-0.417 c 0,0.413 0.033,0.582 0.073,0.375 0.039,-0.206 0.039,-0.543 0,-0.75 -0.04,-0.206 -0.073,-0.037 -0.073,0.375 m 12.334,0.334 c 0,0.412 0.032,0.581 0.072,0.375 0.04,-0.207 0.04,-0.544 0,-0.75 -0.04,-0.207 -0.072,-0.038 -0.072,0.375 M 223.05,48.5 c 0,0.504 0.031,0.71 0.069,0.458 0.039,-0.252 0.039,-0.664 0,-0.916 -0.038,-0.252 -0.069,-0.046 -0.069,0.458 m -19.313,4.25 c 0,1.833 0.024,2.606 0.054,1.717 0.03,-0.889 0.03,-2.389 0,-3.333 -0.03,-0.945 -0.054,-0.217 -0.054,1.616 m 4.65,0.083 c 0,0.596 0.03,0.84 0.067,0.542 0.037,-0.298 0.037,-0.785 0,-1.083 -0.037,-0.298 -0.067,-0.055 -0.067,0.541 M 196.205,58.5 c 0,0.321 0.035,0.452 0.077,0.292 0.041,-0.161 0.041,-0.423 0,-0.584 -0.042,-0.16 -0.077,-0.029 -0.077,0.292 m -20.969,27.333 c 0,1.788 0.025,2.519 0.055,1.625 0.03,-0.893 0.03,-2.356 0,-3.25 -0.03,-0.893 -0.055,-0.162 -0.055,1.625 m 49.984,11.334 c 0,0.596 0.03,0.839 0.067,0.541 0.037,-0.298 0.037,-0.785 0,-1.083 -0.037,-0.298 -0.067,-0.054 -0.067,0.542 m -1.321,1.416 c 0,1.284 0.027,1.787 0.058,1.118 0.032,-0.669 0.032,-1.719 0,-2.333 -0.032,-0.615 -0.058,-0.068 -0.058,1.215 m -45.506,0.75 c 0,0.871 0.029,1.227 0.063,0.792 0.034,-0.435 0.034,-1.148 0,-1.583 -0.034,-0.436 -0.063,-0.08 -0.063,0.791 m 8.168,0.084 c 0,0.916 0.028,1.27 0.062,0.786 0.034,-0.485 0.033,-1.235 -10e-4,-1.667 -0.034,-0.432 -0.062,-0.036 -0.061,0.881 m 1.32,0.666 c 0.001,0.459 0.034,0.626 0.072,0.373 0.038,-0.253 0.037,-0.628 -0.002,-0.833 -0.04,-0.205 -0.071,0.002 -0.07,0.46 m 37.324,0.417 c 0,0.321 0.035,0.452 0.077,0.292 0.041,-0.161 0.041,-0.423 0,-0.584 -0.042,-0.16 -0.077,-0.029 -0.077,0.292"
       stroke="none"
       fill="#84bc74"
       fill-rule="evenodd" />
    <path
       id="path7"
       d="m 198.333,10.139 c -0.596,0.255 -3.145,1.593 -5.666,2.974 -5.55,3.039 -9.773,5.316 -15.084,8.134 -2.2,1.168 -4.111,2.229 -4.248,2.359 -0.555,0.528 -0.758,28.958 -0.21,29.423 0.16,0.136 1.942,1.133 3.958,2.216 2.017,1.082 6.367,3.431 9.667,5.218 14.335,7.766 13.38,7.419 16.083,5.841 0.871,-0.509 3.796,-2.145 6.5,-3.637 2.704,-1.491 6.98,-3.854 9.5,-5.25 2.521,-1.396 5.334,-2.935 6.25,-3.419 0.917,-0.484 1.761,-0.996 1.875,-1.138 0.377,-0.465 0.296,-29.236 -0.083,-29.55 -0.16,-0.134 -1.079,-0.644 -2.042,-1.135 -2.633,-1.344 -9.57,-5.024 -15.833,-8.4 -8.097,-4.364 -7.561,-4.109 -8.645,-4.104 -0.648,0.003 -1.274,0.148 -2.022,0.468 m 3.482,4.102 c 1.313,0.661 2.061,1.436 1.985,2.057 -0.052,0.438 -0.188,0.54 -1.115,0.841 -0.67,0.217 -3.35,1.729 -3.351,1.89 0,0.061 1.293,0.797 2.874,1.634 3.509,1.857 3.544,1.887 2.875,2.44 -2.398,1.985 -3.475,1.954 -7.76,-0.225 l -2.796,-1.423 -1.463,0.791 c -3.351,1.812 -3.401,1.47 0.519,3.546 4.917,2.603 6.547,3.378 6.868,3.262 0.164,-0.059 2.426,-1.265 5.026,-2.679 8.747,-4.759 9.612,-5.099 11.12,-4.369 2.872,1.391 2.468,2.561 -1.566,4.535 -1.163,0.569 -3.052,1.551 -4.198,2.183 -11.501,6.342 -10.551,6.096 -14.844,3.839 -1.323,-0.696 -4.686,-2.463 -7.474,-3.926 -8.593,-4.511 -8.629,-4.557 -5.118,-6.441 1.019,-0.547 4.365,-2.343 7.436,-3.991 9.575,-5.138 9.036,-4.944 10.982,-3.964 M 179.32,31.143 c 2.138,1.179 2.081,1.038 2.18,5.356 0.099,4.345 -0.08,3.995 2.829,5.537 1.056,0.56 2.91,1.568 4.119,2.241 2.929,1.63 2.885,1.639 2.885,-0.612 0,-5.487 1.232,-6.671 4.107,-3.948 l 1.143,1.084 0.048,6.284 c 0.026,3.456 -0.019,7.809 -0.1,9.673 -0.205,4.722 -0.267,4.795 -2.896,3.45 -2.266,-1.159 -2.319,-1.279 -2.43,-5.565 -0.076,-2.888 -0.127,-3.378 -0.392,-3.714 -0.244,-0.31 -3.821,-2.304 -8.3,-4.627 -0.948,-0.491 -1.012,-0.315 -1.022,2.843 -0.015,4.326 -0.148,4.491 -2.6,3.244 -2.669,-1.357 -2.64,-1.199 -2.512,-13.462 0.104,-10.066 -0.12,-9.472 2.941,-7.784 m 43.868,-0.367 c 0.311,0.376 0.314,18.25 0.003,19.34 -0.24,0.843 -0.971,1.494 -2.588,2.307 -2.103,1.057 -2.2,0.932 -2.143,-2.769 0.048,-3.112 -0.071,-3.745 -0.668,-3.561 -0.744,0.229 -8.054,4.166 -8.542,4.601 l -0.5,0.445 -0.103,3.472 c -0.056,1.91 -0.182,3.67 -0.28,3.912 -0.318,0.785 -4.022,2.888 -4.409,2.502 -0.589,-0.588 -0.565,-19.011 0.027,-20.568 0.182,-0.479 3.225,-2.124 3.929,-2.124 0.577,0 0.631,0.3 0.714,3.959 0.042,1.856 0.118,3.375 0.167,3.375 0.179,0 6.649,-3.377 7.93,-4.139 1.686,-1.003 1.636,-0.866 1.726,-4.68 0.042,-1.795 0.15,-3.505 0.24,-3.798 0.43,-1.409 3.802,-3.114 4.497,-2.274 m -65.959,49.807 c 0,1.009 0.028,1.4 0.061,0.869 0.033,-0.53 0.033,-1.355 -0.001,-1.833 -0.033,-0.478 -0.06,-0.044 -0.06,0.964 m 4,0 c 0,1.009 0.028,1.4 0.061,0.869 0.033,-0.53 0.033,-1.355 -0.001,-1.833 -0.033,-0.478 -0.06,-0.044 -0.06,0.964 m 48.631,-0.208 c -0.015,0.894 0.03,1.625 0.098,1.625 0.069,0.001 0.105,-0.506 0.079,-1.125 -0.08,-1.977 -0.15,-2.172 -0.177,-0.5 m -16.154,1.207 c 0.38,0.408 0.491,0.451 0.667,0.262 0.17,-0.183 0.168,-0.202 -0.01,-0.101 -0.133,0.076 -0.398,-0.029 -0.667,-0.263 l -0.446,-0.387 0.456,0.489 m -18.635,4.168 c 0,2.017 0.024,2.819 0.054,1.782 0.029,-1.036 0.029,-2.686 -0.001,-3.666 -0.029,-0.981 -0.053,-0.133 -0.053,1.884 m 64.667,0 c 0,2.017 0.024,2.819 0.053,1.782 0.029,-1.036 0.029,-2.686 0,-3.666 -0.029,-0.981 -0.053,-0.133 -0.053,1.884 m -81.44,-3.126 c 0.577,0.032 1.477,0.032 2,-10e-4 0.524,-0.033 0.052,-0.06 -1.048,-0.059 -1.1,0 -1.528,0.027 -0.952,0.06 m 10.327,0.994 c 0.206,0.039 0.544,0.039 0.75,0 0.206,-0.04 0.037,-0.073 -0.375,-0.073 -0.413,0 -0.581,0.033 -0.375,0.073 m 31.752,0.002 c 0.254,0.038 0.629,0.037 0.834,-0.003 0.205,-0.039 -0.003,-0.071 -0.461,-0.069 -0.458,0.001 -0.626,0.033 -0.373,0.072 m 33,0 c 0.254,0.038 0.629,0.037 0.834,-0.003 0.205,-0.039 -0.003,-0.071 -0.461,-0.069 -0.458,0.001 -0.626,0.033 -0.373,0.072 m -43.476,3.047 c 0,1.512 0.025,2.131 0.056,1.375 0.031,-0.757 0.031,-1.994 0,-2.75 -0.031,-0.757 -0.056,-0.138 -0.056,1.375 m 26,0.083 c 0,1.467 0.026,2.044 0.056,1.284 0.031,-0.761 0.031,-1.961 0,-2.667 -0.031,-0.706 -0.056,-0.084 -0.056,1.383 m -35.003,0 c 0,1.192 0.027,1.657 0.059,1.035 0.032,-0.623 0.032,-1.598 0,-2.167 -0.033,-0.569 -0.059,-0.06 -0.059,1.132 m 3.167,0.25 c 0,1.237 0.027,1.744 0.059,1.125 0.032,-0.619 0.032,-1.631 0,-2.25 -0.032,-0.619 -0.059,-0.112 -0.059,1.125 m 46.841,-1.458 -0.489,0.541 0.541,-0.489 c 0.505,-0.456 0.619,-0.594 0.49,-0.594 -0.029,0 -0.273,0.244 -0.542,0.542 m -73.667,0.011 c -0.047,0.121 -0.063,1.002 -0.036,1.958 l 0.049,1.739 0.082,-1.959 c 0.082,-1.936 0.069,-2.167 -0.095,-1.738 m 3.927,1.746 0.082,1.951 0.049,-1.819 c 0.026,-1.001 -0.011,-1.878 -0.083,-1.951 -0.072,-0.072 -0.094,0.746 -0.048,1.819 m 48.731,0.118 c 0,1.1 0.027,1.528 0.06,0.951 0.033,-0.576 0.032,-1.476 -0.001,-2 -0.033,-0.523 -0.059,-0.051 -0.059,1.049 M 194.063,87.5 c 0,1.054 0.027,1.485 0.06,0.958 0.033,-0.527 0.033,-1.389 0,-1.916 -0.033,-0.527 -0.06,-0.096 -0.06,0.958 m -28.684,0 c 0,0.412 0.032,0.581 0.072,0.375 0.04,-0.206 0.04,-0.544 0,-0.75 -0.04,-0.206 -0.072,-0.038 -0.072,0.375 m 58.288,10.26 c 0,1.059 -0.057,1.892 -0.125,1.849 -0.069,-0.042 -0.125,0.246 -0.125,0.641 0,0.395 0.056,0.683 0.125,0.641 0.068,-0.043 0.125,0.035 0.125,0.173 0,0.137 0.074,0.296 0.166,0.352 0.107,0.067 0.115,-0.033 0.021,-0.281 -0.079,-0.212 -0.106,-1.491 -0.06,-2.843 0.047,-1.352 0.037,-2.459 -0.021,-2.459 -0.058,0 -0.106,0.867 -0.106,1.927 m -11.008,-1.139 c -0.046,0.387 -0.02,0.64 0.057,0.563 0.078,-0.078 0.116,-0.395 0.084,-0.704 -0.057,-0.549 -0.06,-0.546 -0.141,0.141 m 17.687,0.068 c -0.007,0.15 0.194,0.398 0.446,0.552 0.45,0.274 0.452,0.273 0.109,-0.029 -0.192,-0.169 -0.393,-0.417 -0.445,-0.551 -0.078,-0.199 -0.099,-0.194 -0.11,0.028 m -44.957,1.022 c 0.29,0.3 0.56,0.524 0.599,0.499 0.095,-0.062 -0.85,-1.043 -1.005,-1.043 -0.067,0 0.116,0.245 0.406,0.544 m -7.193,1.654 c -0.016,1.072 0.027,1.984 0.096,2.026 0.068,0.043 0.104,-0.534 0.08,-1.281 -0.081,-2.45 -0.147,-2.727 -0.176,-0.745 m 49.414,-1.157 c -0.417,0.657 -0.42,0.676 -0.047,0.261 0.222,-0.246 0.432,-0.419 0.467,-0.383 0.036,0.036 0.065,-0.082 0.065,-0.261 0,-0.412 0.039,-0.443 -0.485,0.383 m -58.055,0.542 c 0,0.642 0.031,0.884 0.067,0.538 0.036,-0.346 0.035,-0.871 -0.002,-1.167 -0.037,-0.296 -0.066,-0.013 -0.065,0.629 m 3.007,0.667 c 10e-4,1.008 0.028,1.399 0.061,0.869 0.034,-0.531 0.033,-1.356 0,-1.834 -0.034,-0.478 -0.061,-0.044 -0.061,0.965 m 0.334,0 c 0,1.008 0.028,1.399 0.061,0.869 0.033,-0.531 0.033,-1.356 -0.001,-1.834 -0.034,-0.478 -0.061,-0.044 -0.06,0.965 M 219.45,98.39 c -0.107,0.28 0.411,1.277 0.665,1.277 0.051,0 -0.001,-0.113 -0.116,-0.251 -0.114,-0.138 -0.258,-0.495 -0.319,-0.792 -0.09,-0.437 -0.134,-0.482 -0.23,-0.234 m -36.007,0.068 c -0.042,0.069 0.138,0.133 0.402,0.143 0.263,0.009 0.438,-0.047 0.39,-0.125 -0.109,-0.176 -0.687,-0.189 -0.792,-0.018 m 21.251,0.021 c -0.147,0.094 -0.055,0.135 0.276,0.123 0.273,-0.01 0.463,-0.075 0.42,-0.144 -0.101,-0.164 -0.418,-0.154 -0.696,0.021 m 6.569,0.173 c -0.181,0.2 -0.262,0.494 -0.217,0.792 0.07,0.466 0.071,0.465 0.096,-0.06 0.016,-0.341 0.157,-0.625 0.395,-0.791 0.204,-0.143 0.29,-0.26 0.193,-0.26 -0.098,0 -0.308,0.144 -0.467,0.319 m -9.485,-0.041 c -0.153,0.153 -0.141,1.518 0.014,1.613 0.068,0.043 0.125,-0.328 0.125,-0.823 0,-0.496 -0.007,-0.901 -0.014,-0.901 -0.008,0 -0.064,0.05 -0.125,0.111 m 28.622,0.123 c -0.05,0.129 -0.064,0.485 -0.032,0.792 0.051,0.489 0.068,0.46 0.138,-0.234 0.082,-0.812 0.052,-0.97 -0.106,-0.558 m -69.331,0.326 c -0.048,0.125 -0.063,0.669 -0.034,1.209 l 0.053,0.981 0.081,-1.209 c 0.081,-1.213 0.062,-1.402 -0.1,-0.981 m 20.306,0.357 c 0.002,0.366 0.036,0.497 0.076,0.289 0.04,-0.207 0.039,-0.507 -0.003,-0.666 -0.042,-0.16 -0.074,0.01 -0.073,0.377 m 9.681,0.583 c 0,0.688 0.029,0.969 0.065,0.625 0.036,-0.344 0.036,-0.906 0,-1.25 -0.036,-0.344 -0.065,-0.062 -0.065,0.625 m 21.649,-0.667 c 0,0.321 0.035,0.452 0.077,0.292 0.041,-0.16 0.041,-0.423 0,-0.583 -0.042,-0.161 -0.077,-0.029 -0.077,0.291 m -20.484,0.75 c 0.001,0.642 0.031,0.884 0.067,0.538 0.036,-0.346 0.036,-0.871 -0.001,-1.166 -0.037,-0.296 -0.066,-0.013 -0.066,0.628 m -32.834,0.084 c 0,0.596 0.03,0.839 0.067,0.541 0.037,-0.298 0.037,-0.785 0,-1.083 -0.037,-0.298 -0.067,-0.054 -0.067,0.542 m 28.611,0.2 c -0.045,0.615 -0.021,1.057 0.053,0.983 0.073,-0.074 0.11,-0.577 0.081,-1.117 l -0.053,-0.983 -0.081,1.117 m -4.665,-0.377 c 0,0.086 0.087,0.211 0.193,0.276 0.116,0.072 0.147,0.046 0.078,-0.066 -0.078,-0.126 0.243,-0.203 1.016,-0.243 l 1.13,-0.058 -1.208,-0.033 c -0.667,-0.018 -1.209,0.038 -1.209,0.124 m 21.167,0 c 0,0.086 0.087,0.211 0.192,0.276 0.117,0.072 0.148,0.046 0.079,-0.066 -0.078,-0.126 0.243,-0.203 1.016,-0.243 l 1.13,-0.058 -1.209,-0.033 c -0.667,-0.018 -1.208,0.038 -1.208,0.124 m 12.621,-0.036 c 0.296,0.036 0.821,0.037 1.167,0.001 0.346,-0.036 0.104,-0.066 -0.538,-0.067 -0.642,-0.001 -0.925,0.029 -0.629,0.066 m 1.296,0.333 c 0.183,0.045 0.445,0.168 0.583,0.273 0.217,0.165 0.22,0.152 0.021,-0.102 -0.126,-0.16 -0.388,-0.283 -0.583,-0.272 -0.337,0.018 -0.338,0.023 -0.021,0.101 m 19.941,1.838 c 0.023,0.567 0.032,0.579 0.099,0.126 0.04,-0.275 0.16,-0.555 0.266,-0.623 0.126,-0.08 0.091,-0.124 -0.098,-0.125 -0.231,-0.002 -0.286,0.128 -0.267,0.622"
       stroke="none"
       fill="#c4d7c4"
       fill-rule="evenodd" />
    <path
       id="path8"
       d="m 176.548,31.583 c 0.001,0.459 0.033,0.626 0.072,0.373 0.038,-0.253 0.037,-0.628 -0.003,-0.833 -0.039,-0.205 -0.071,0.002 -0.069,0.46 m 46.86,6.584 c 0,3.254 0.023,4.585 0.05,2.958 0.027,-1.627 0.027,-4.29 0,-5.917 -0.027,-1.627 -0.05,-0.296 -0.05,2.959 m -4.858,-3.334 c 0,0.504 0.031,0.711 0.069,0.459 0.039,-0.252 0.039,-0.665 0,-0.917 -0.038,-0.252 -0.069,-0.046 -0.069,0.458 m -27.171,9 c 0,0.413 0.032,0.582 0.072,0.375 0.04,-0.206 0.04,-0.543 0,-0.75 -0.04,-0.206 -0.072,-0.037 -0.072,0.375 m 12.342,0.75 c 0.001,0.642 0.031,0.884 0.067,0.538 0.036,-0.346 0.036,-0.871 -0.001,-1.166 -0.037,-0.296 -0.066,-0.013 -0.066,0.628 m 4.821,0.5 c 0.002,0.367 0.036,0.497 0.076,0.29 0.04,-0.207 0.038,-0.507 -0.003,-0.667 -0.042,-0.159 -0.075,0.011 -0.073,0.377 m 10.008,2.75 c 0,0.504 0.031,0.711 0.069,0.459 0.039,-0.252 0.039,-0.665 0,-0.917 -0.038,-0.252 -0.069,-0.046 -0.069,0.458 m 4.667,0 c 0,0.504 0.031,0.711 0.069,0.459 0.038,-0.252 0.038,-0.665 0,-0.917 -0.038,-0.252 -0.069,-0.046 -0.069,0.458 m -19.655,5 c 0,0.963 0.027,1.357 0.061,0.875 0.034,-0.481 0.034,-1.268 0,-1.75 -0.034,-0.481 -0.061,-0.087 -0.061,0.875 m -7.187,5.25 c 0.002,0.367 0.036,0.497 0.076,0.29 0.04,-0.207 0.039,-0.507 -0.003,-0.667 -0.042,-0.159 -0.074,0.011 -0.073,0.377 m 7.337,1.417 c 0,0.413 0.033,0.581 0.072,0.375 0.04,-0.206 0.04,-0.544 0,-0.75 -0.039,-0.206 -0.072,-0.038 -0.072,0.375 m -29.813,27.25 c 0,1.283 0.027,1.786 0.058,1.118 0.032,-0.669 0.032,-1.719 0,-2.334 -0.032,-0.614 -0.058,-0.067 -0.058,1.216 M 186.898,87 c 0,1.146 0.026,1.615 0.059,1.042 0.032,-0.573 0.032,-1.511 0,-2.084 -0.033,-0.573 -0.059,-0.104 -0.059,1.042 m -28.6,-1.71 c 0.577,0.033 1.477,0.033 2,0 0.524,-0.033 0.052,-0.06 -1.048,-0.06 -1.1,10e-4 -1.528,0.028 -0.952,0.06 m 22.766,1.877 c 0,1.146 0.027,1.614 0.059,1.041 0.033,-0.573 0.033,-1.51 0,-2.083 -0.032,-0.573 -0.059,-0.104 -0.059,1.042 m 46.166,-0.084 c 0.001,1.1 0.028,1.529 0.06,0.952 0.033,-0.576 0.033,-1.476 0,-2 -0.033,-0.523 -0.06,-0.052 -0.06,1.048 m -14.334,0 c 0,1.009 0.028,1.4 0.061,0.869 0.033,-0.53 0.033,-1.355 -0.001,-1.833 -0.034,-0.478 -0.061,-0.044 -0.06,0.964 m 29.832,0.25 c 0,0.963 0.028,1.357 0.062,0.875 0.033,-0.481 0.033,-1.268 0,-1.75 -0.034,-0.481 -0.062,-0.087 -0.062,0.875"
       stroke="none"
       fill="#acccac"
       fill-rule="evenodd" />
  </g>
</svg>
