<svg xmlns="http://www.w3.org/2000/svg" width="256" height="256" viewBox="0 0 256 256" version="1.1"><path d="M 105.500 47.608 C 90.650 55.618, 76.250 63.344, 73.500 64.778 C 56.227 73.784, 54.948 71.921, 91.500 91.001 C 97 93.872, 105.550 98.371, 110.500 100.998 C 115.450 103.625, 122.151 107.176, 125.391 108.887 C 132.540 112.665, 135.161 112.748, 141 109.381 C 143.475 107.954, 148.650 105.185, 152.500 103.226 C 156.350 101.268, 165.125 96.524, 172 92.685 C 178.875 88.845, 185.635 85.207, 187.022 84.602 C 206.213 76.221, 209.743 71.691, 200.672 67.087 C 191.965 62.668, 197.078 60.603, 141.188 91.102 C 138.267 92.696, 135.443 94, 134.913 94 C 133.952 94, 99.076 75.738, 95.751 73.494 C 94.230 72.467, 95.230 71.633, 103.441 67.084 L 112.880 61.855 125.637 68.513 C 140.351 76.192, 143.589 76.273, 152.797 69.188 L 155.093 67.421 150.797 65.114 C 148.434 63.845, 142.566 60.744, 137.758 58.224 L 129.015 53.641 136.258 49.332 C 140.241 46.962, 143.993 45.017, 144.595 45.011 C 150.771 44.948, 149.324 39.892, 142.046 36.104 C 133.920 31.875, 135.721 31.308, 105.500 47.608 M 43.667 98.667 C 43.300 99.033, 43 116.739, 43 138.012 C 43 181.924, 42.032 177.318, 52.428 182.847 C 61.299 187.566, 61 187.906, 61 173.082 C 61 154.622, 59.929 155.405, 74.409 163.280 C 79.409 166, 86.650 169.837, 90.500 171.808 C 101.656 177.520, 101 176.226, 101 192.519 C 101 209.045, 101.130 209.304, 111.969 214.485 C 120.352 218.492, 119.967 220.305, 119.985 176.705 L 120 138.909 117.562 136.471 C 104.532 123.441, 101.889 126.453, 101.077 155.250 C 100.974 158.921, 99.096 158.795, 92.131 154.648 C 89.034 152.804, 81.550 148.691, 75.500 145.508 C 59.666 137.177, 60.903 139.201, 61.085 121.913 C 61.266 104.774, 61.789 106.167, 53.462 101.590 C 46.946 98.008, 44.927 97.406, 43.667 98.667 M 214.528 101.961 C 207.072 106.349, 207.002 106.541, 206.985 122.441 C 206.968 138.080, 207.071 137.727, 201.500 141.181 C 196.792 144.100, 168.431 159, 167.582 159 C 167.262 159, 167 152.502, 167 144.559 C 167 136.288, 166.585 129.861, 166.028 129.517 C 164.945 128.848, 153.481 134.258, 150.750 136.727 C 148.569 138.700, 147.987 217, 150.154 217 C 151.897 217, 164.326 209.871, 165.718 208.073 C 166.537 207.016, 166.952 201.911, 166.984 192.500 C 167.039 175.899, 166.285 177.405, 177.500 171.508 C 182.450 168.905, 190.659 164.547, 195.742 161.824 C 207.335 155.612, 207.221 155.531, 206.982 169.863 C 206.723 185.346, 206.677 185, 209.015 185 C 212.329 185, 221.954 178.991, 223.533 175.935 C 225.044 173.013, 225.828 104.321, 224.393 100.582 C 223.485 98.215, 220.084 98.690, 214.528 101.961" stroke="none" fill="#44a41a" fill-rule="evenodd"/><path d="M 98.500 34.135 C 79.250 44.594, 56.525 56.830, 47.999 61.326 C 39.474 65.822, 31.603 70.028, 30.509 70.674 C 28.559 71.825, 28.519 73.013, 28.509 128.976 L 28.500 186.104 81 214.528 C 141.206 247.125, 133.744 244.521, 146.500 237.382 C 152 234.305, 165.275 226.948, 176 221.034 C 186.725 215.121, 201.125 207.134, 208 203.287 C 214.875 199.440, 224.888 193.938, 230.250 191.060 L 240 185.827 240 128.010 L 240 70.193 232.750 66.511 C 225.719 62.940, 197.875 48.139, 156.249 25.846 C 131.803 12.753, 140.021 11.574, 98.500 34.135 M 105.500 47.608 C 90.650 55.618, 76.250 63.344, 73.500 64.778 C 56.227 73.784, 54.948 71.921, 91.500 91.001 C 97 93.872, 105.550 98.371, 110.500 100.998 C 115.450 103.625, 122.151 107.176, 125.391 108.887 C 132.540 112.665, 135.161 112.748, 141 109.381 C 143.475 107.954, 148.650 105.185, 152.500 103.226 C 156.350 101.268, 165.125 96.524, 172 92.685 C 178.875 88.845, 185.635 85.207, 187.022 84.602 C 206.213 76.221, 209.743 71.691, 200.672 67.087 C 191.965 62.668, 197.078 60.603, 141.188 91.102 C 138.267 92.696, 135.443 94, 134.913 94 C 133.952 94, 99.076 75.738, 95.751 73.494 C 94.230 72.467, 95.230 71.633, 103.441 67.084 L 112.880 61.855 125.637 68.513 C 140.351 76.192, 143.589 76.273, 152.797 69.188 L 155.093 67.421 150.797 65.114 C 148.434 63.845, 142.566 60.744, 137.758 58.224 L 129.015 53.641 136.258 49.332 C 140.241 46.962, 143.993 45.017, 144.595 45.011 C 150.771 44.948, 149.324 39.892, 142.046 36.104 C 133.920 31.875, 135.721 31.308, 105.500 47.608 M 43.667 98.667 C 43.300 99.033, 43 116.739, 43 138.012 C 43 181.924, 42.032 177.318, 52.428 182.847 C 61.299 187.566, 61 187.906, 61 173.082 C 61 154.622, 59.929 155.405, 74.409 163.280 C 79.409 166, 86.650 169.837, 90.500 171.808 C 101.656 177.520, 101 176.226, 101 192.519 C 101 209.045, 101.130 209.304, 111.969 214.485 C 120.352 218.492, 119.967 220.305, 119.985 176.705 L 120 138.909 117.562 136.471 C 104.532 123.441, 101.889 126.453, 101.077 155.250 C 100.974 158.921, 99.096 158.795, 92.131 154.648 C 89.034 152.804, 81.550 148.691, 75.500 145.508 C 59.666 137.177, 60.903 139.201, 61.085 121.913 C 61.266 104.774, 61.789 106.167, 53.462 101.590 C 46.946 98.008, 44.927 97.406, 43.667 98.667 M 214.528 101.961 C 207.072 106.349, 207.002 106.541, 206.985 122.441 C 206.968 138.080, 207.071 137.727, 201.500 141.181 C 196.792 144.100, 168.431 159, 167.582 159 C 167.262 159, 167 152.502, 167 144.559 C 167 136.288, 166.585 129.861, 166.028 129.517 C 164.945 128.848, 153.481 134.258, 150.750 136.727 C 148.569 138.700, 147.987 217, 150.154 217 C 151.897 217, 164.326 209.871, 165.718 208.073 C 166.537 207.016, 166.952 201.911, 166.984 192.500 C 167.039 175.899, 166.285 177.405, 177.500 171.508 C 182.450 168.905, 190.659 164.547, 195.742 161.824 C 207.335 155.612, 207.221 155.531, 206.982 169.863 C 206.723 185.346, 206.677 185, 209.015 185 C 212.329 185, 221.954 178.991, 223.533 175.935 C 225.044 173.013, 225.828 104.321, 224.393 100.582 C 223.485 98.215, 220.084 98.690, 214.528 101.961" stroke="none" fill="#cad6cc" fill-rule="evenodd"/></svg>